<?xml version="1.0" encoding="UTF-8" standalone="no"?>
<!-- Created with Inkscape (http://www.inkscape.org/) -->

<svg
   width="11.90625mm"
   height="11.90625mm"
   viewBox="0 0 11.906251 11.90625"
   version="1.1"
   id="svg5"
   inkscape:version="1.3.2 (091e20e, 2023-11-25, custom)"
   sodipodi:docname="icon_design.svg"
   xml:space="preserve"
   xmlns:inkscape="http://www.inkscape.org/namespaces/inkscape"
   xmlns:sodipodi="http://sodipodi.sourceforge.net/DTD/sodipodi-0.dtd"
   xmlns:xlink="http://www.w3.org/1999/xlink"
   xmlns="http://www.w3.org/2000/svg"
   xmlns:svg="http://www.w3.org/2000/svg"><sodipodi:namedview
     id="namedview7"
     pagecolor="#ffffff"
     bordercolor="#666666"
     borderopacity="1.0"
     inkscape:pageshadow="2"
     inkscape:pageopacity="0.0"
     inkscape:pagecheckerboard="0"
     inkscape:document-units="px"
     showgrid="false"
     showborder="true"
     inkscape:zoom="1.4142135"
     inkscape:cx="86.267028"
     inkscape:cy="32.173359"
     inkscape:window-width="1920"
     inkscape:window-height="1009"
     inkscape:window-x="-8"
     inkscape:window-y="-8"
     inkscape:window-maximized="1"
     inkscape:current-layer="layer1"
     inkscape:showpageshadow="2"
     inkscape:deskcolor="#d1d1d1" /><defs
     id="defs2"><linearGradient
       id="linearGradient16"
       inkscape:collect="always"><stop
         style="stop-color:#e5c001;stop-opacity:1"
         offset="0"
         id="stop17" /><stop
         style="stop-color:#ffe867;stop-opacity:1;"
         offset="0.50714284"
         id="stop18" /><stop
         style="stop-color:#f7edac;stop-opacity:1"
         offset="0.99404764"
         id="stop16" /></linearGradient><inkscape:path-effect
       effect="skeletal"
       id="path-effect6"
       is_visible="true"
       lpeversion="1"
       pattern="M 0,4.9921383 C 0,2.2364779 2.2364779,0 4.9921383,0 c 2.7556603,0 4.9921382,2.2364779 4.9921382,4.9921383 0,2.7556603 -2.2364779,4.9921382 -4.9921382,4.9921382 C 2.2364779,9.9842765 0,7.7477986 0,4.9921383 Z"
       copytype="single_stretched"
       prop_scale="1"
       scale_y_rel="false"
       spacing="0"
       normal_offset="0"
       tang_offset="0"
       prop_units="false"
       vertical_pattern="false"
       hide_knot="false"
       fuse_tolerance="0" /><inkscape:path-effect
       effect="powerstroke"
       id="path-effect4"
       is_visible="true"
       lpeversion="1.3"
       scale_width="1"
       interpolator_type="CubicBezierJohan"
       interpolator_beta="0.2"
       start_linecap_type="zerowidth"
       end_linecap_type="zerowidth"
       offset_points="0,1.49"
       linejoin_type="extrp_arc"
       miter_limit="4"
       not_jump="false"
       sort_points="true"
       message="&lt;b&gt;Ctrl + click&lt;/b&gt; on existing node and move it" /><linearGradient
       inkscape:collect="always"
       id="linearGradient1179"><stop
         style="stop-color:#c8c4b7;stop-opacity:1"
         offset="0"
         id="stop1175" /><stop
         style="stop-color:#e3e2db;stop-opacity:1"
         offset="1"
         id="stop1177" /></linearGradient><clipPath
       clipPathUnits="userSpaceOnUse"
       id="clipPath70034"><path
         id="path70036"
         style="fill:#79859b;fill-opacity:1;stroke:#000000;stroke-width:0.529166;stroke-linecap:butt;stroke-linejoin:miter;stroke-miterlimit:4;stroke-dasharray:none;stroke-opacity:1;paint-order:stroke fill markers"
         d="m 548.06012,-228.10683 c -0.54933,0.003 -1.1882,0.1067 -1.69244,0.3084 -0.26465,0.10586 -0.4501,0.51951 -0.57965,1.02723 -0.0947,-0.0219 -0.23207,-0.038 -0.43842,-0.038 -0.30776,0 -0.57267,0.0326 -0.79688,0.1406 -0.16169,0.0792 -0.28449,0.0998 -0.27791,0.30839 0.029,0.0289 0.4997,0.053 0.78326,0.0822 0.22503,0.0233 0.46138,0.12455 0.59383,0.18481 -0.0582,0.36905 -0.0957,0.7397 -0.11967,1.04821 -0.008,0.1006 -0.014,0.19213 -0.0193,0.27721 -0.002,0.0313 -0.003,0.0569 -0.005,0.0856 -0.003,0.0519 -0.006,0.0995 -0.008,0.14229 -0.001,0.0338 -0.002,0.0593 -0.003,0.0867 -10e-4,0.0349 -6.1e-4,0.0402 -0.002,0.0641 -0.002,0.0558 -0.003,0.0952 -0.003,0.0952 0,0 -0.004,0.006 -0.0147,0.0351 -0.005,0.015 -0.0126,0.0359 -0.0221,0.0663 0,0 0,5.8e-4 0,5.8e-4 -0.002,0.007 -0.007,0.0194 -0.009,0.0272 -0.0189,0.0612 -0.0435,0.14677 -0.08,0.28232 -0.0411,0.15289 -0.0951,0.36254 -0.16561,0.64911 -0.0352,0.14329 -0.0745,0.3059 -0.11854,0.49037 -0.011,0.0461 -0.02,0.0938 -0.0272,0.14286 -0.008,0.049 -0.0123,0.0996 -0.0159,0.15136 -0.003,0.0518 -0.005,0.10499 -0.005,0.1593 -8e-5,0.0452 0.002,0.0909 0.004,0.13776 0.001,0.0241 0.003,0.0486 0.005,0.0731 0.002,0.0275 0.005,0.0554 0.007,0.0833 0.002,0.0274 0.005,0.0549 0.009,0.0828 0.005,0.0466 0.0117,0.0939 0.0193,0.14173 0,0 0,5.8e-4 0,5.8e-4 0.01,0.0608 0.0204,0.1223 0.0329,0.18481 0.0125,0.0625 0.0267,0.12586 0.042,0.18991 0.0153,0.0641 0.032,0.12848 0.0499,0.19388 0.0179,0.0654 0.0369,0.13186 0.0573,0.19842 0.0205,0.0668 0.0424,0.13351 0.0652,0.20125 0.0684,0.20255 0.1466,0.40866 0.23367,0.61622 0.0291,0.0692 0.0593,0.13815 0.0902,0.20749 0,0 0,5.8e-4 0,5.8e-4 0.0307,0.0692 0.0623,0.13834 0.0947,0.20749 0.19494,0.41604 0.41831,0.82966 0.65508,1.21941 0.0747,0.12306 0.15107,0.2435 0.22801,0.36111 h 9.08665 c -0.17402,-2.86414 -1.2584,-5.97176 -1.63459,-6.04829 -0.481,-0.0978 -1.85359,-0.70172 -2.13029,-1.25512 -0.27672,-0.55343 -2.46698,-2.3286 -3.04345,-2.51309 -0.21605,-0.0692 -0.51336,-0.10306 -0.84281,-0.10091 z" /></clipPath><clipPath
       clipPathUnits="userSpaceOnUse"
       id="clipPath70034-5"><path
         id="path70036-8"
         style="fill:#79859b;fill-opacity:1;stroke:#000000;stroke-width:0.529166;stroke-linecap:butt;stroke-linejoin:miter;stroke-miterlimit:4;stroke-dasharray:none;stroke-opacity:1;paint-order:stroke fill markers"
         d="m 548.06012,-228.10683 c -0.54933,0.003 -1.1882,0.1067 -1.69244,0.3084 -0.26465,0.10586 -0.4501,0.51951 -0.57965,1.02723 -0.0947,-0.0219 -0.23207,-0.038 -0.43842,-0.038 -0.30776,0 -0.57267,0.0326 -0.79688,0.1406 -0.16169,0.0792 -0.28449,0.0998 -0.27791,0.30839 0.029,0.0289 0.4997,0.053 0.78326,0.0822 0.22503,0.0233 0.46138,0.12455 0.59383,0.18481 -0.0582,0.36905 -0.0957,0.7397 -0.11967,1.04821 -0.008,0.1006 -0.014,0.19213 -0.0193,0.27721 -0.002,0.0313 -0.003,0.0569 -0.005,0.0856 -0.003,0.0519 -0.006,0.0995 -0.008,0.14229 -0.001,0.0338 -0.002,0.0593 -0.003,0.0867 -10e-4,0.0349 -6.1e-4,0.0402 -0.002,0.0641 -0.002,0.0558 -0.003,0.0952 -0.003,0.0952 0,0 -0.004,0.006 -0.0147,0.0351 -0.005,0.015 -0.0126,0.0359 -0.0221,0.0663 0,0 0,5.8e-4 0,5.8e-4 -0.002,0.007 -0.007,0.0194 -0.009,0.0272 -0.0189,0.0612 -0.0435,0.14677 -0.08,0.28232 -0.0411,0.15289 -0.0951,0.36254 -0.16561,0.64911 -0.0352,0.14329 -0.0745,0.3059 -0.11854,0.49037 -0.011,0.0461 -0.02,0.0938 -0.0272,0.14286 -0.008,0.049 -0.0123,0.0996 -0.0159,0.15136 -0.003,0.0518 -0.005,0.10499 -0.005,0.1593 -8e-5,0.0452 0.002,0.0909 0.004,0.13776 0.001,0.0241 0.003,0.0486 0.005,0.0731 0.002,0.0275 0.005,0.0554 0.007,0.0833 0.002,0.0274 0.005,0.0549 0.009,0.0828 0.005,0.0466 0.0117,0.0939 0.0193,0.14173 0,0 0,5.8e-4 0,5.8e-4 0.01,0.0608 0.0204,0.1223 0.0329,0.18481 0.0125,0.0625 0.0267,0.12586 0.042,0.18991 0.0153,0.0641 0.032,0.12848 0.0499,0.19388 0.0179,0.0654 0.0369,0.13186 0.0573,0.19842 0.0205,0.0668 0.0424,0.13351 0.0652,0.20125 0.0684,0.20255 0.1466,0.40866 0.23367,0.61622 0.0291,0.0692 0.0593,0.13815 0.0902,0.20749 0,0 0,5.8e-4 0,5.8e-4 0.0307,0.0692 0.0623,0.13834 0.0947,0.20749 0.19494,0.41604 0.41831,0.82966 0.65508,1.21941 0.0747,0.12306 0.15107,0.2435 0.22801,0.36111 h 9.08665 c -0.17402,-2.86414 -1.2584,-5.97176 -1.63459,-6.04829 -0.481,-0.0978 -1.85359,-0.70172 -2.13029,-1.25512 -0.27672,-0.55343 -2.46698,-2.3286 -3.04345,-2.51309 -0.21605,-0.0692 -0.51336,-0.10306 -0.84281,-0.10091 z" /></clipPath><clipPath
       clipPathUnits="userSpaceOnUse"
       id="clipPath46021"><rect
         style="fill:#e6e6e6;fill-opacity:1;stroke:none;stroke-width:0.529164;stroke-linecap:square;stroke-linejoin:round;paint-order:stroke fill markers;stop-color:#000000"
         id="rect46023"
         width="95.77916"
         height="59.861977"
         x="1474.7316"
         y="-289.7153" /></clipPath><clipPath
       clipPathUnits="userSpaceOnUse"
       id="clipPath1582"><rect
         style="fill:url(#linearGradient1586);fill-opacity:1;stroke-width:0.407607"
         id="rect1584"
         width="338.66666"
         height="211.66667"
         x="1148.515"
         y="46.946522" /></clipPath><linearGradient
       inkscape:collect="always"
       xlink:href="#linearGradient1179"
       id="linearGradient1586"
       gradientUnits="userSpaceOnUse"
       x1="1154.1417"
       y1="137.87424"
       x2="1474.7041"
       y2="169.00879"
       gradientTransform="translate(8.5416667e-6)" /><clipPath
       clipPathUnits="userSpaceOnUse"
       id="clipPath6070"><rect
         style="opacity:0.470194;fill:#000000;stroke:none;stroke-width:3.45591;stroke-linecap:square;stroke-linejoin:round;stroke-dasharray:none;stroke-opacity:1;paint-order:stroke fill markers"
         id="rect6072"
         width="185.63359"
         height="57.397923"
         x="3061.4553"
         y="48.925018" /></clipPath><clipPath
       clipPathUnits="userSpaceOnUse"
       id="clipPath6080"><rect
         style="opacity:0.470194;fill:#000000;stroke:none;stroke-width:3.45591;stroke-linecap:square;stroke-linejoin:round;stroke-dasharray:none;stroke-opacity:1;paint-order:stroke fill markers"
         id="rect6082"
         width="185.63359"
         height="57.397923"
         x="2865.6606"
         y="48.925018" /></clipPath><clipPath
       clipPathUnits="userSpaceOnUse"
       id="clipPath6101"><rect
         style="opacity:0.470194;fill:#000000;stroke:none;stroke-width:3.43892;stroke-linecap:square;stroke-linejoin:round;stroke-dasharray:none;stroke-opacity:1;paint-order:stroke fill markers"
         id="rect6103"
         width="185.63359"
         height="56.835197"
         x="2770.4092"
         y="49.487728" /></clipPath><clipPath
       clipPathUnits="userSpaceOnUse"
       id="clipPath6260"><rect
         style="opacity:0.470194;fill:#000000;stroke:none;stroke-width:3.59198;stroke-linecap:square;stroke-linejoin:round;stroke-dasharray:none;stroke-opacity:1;paint-order:stroke fill markers"
         id="rect6262"
         width="176.9025"
         height="48.301678"
         x="2719.916"
         y="129.618" /></clipPath><clipPath
       clipPathUnits="userSpaceOnUse"
       id="clipPath6264"><rect
         style="opacity:0.470194;fill:#000000;stroke:none;stroke-width:3.59198;stroke-linecap:square;stroke-linejoin:round;stroke-dasharray:none;stroke-opacity:1;paint-order:stroke fill markers"
         id="rect6266"
         width="176.9025"
         height="48.301678"
         x="2719.916"
         y="129.618" /></clipPath><clipPath
       clipPathUnits="userSpaceOnUse"
       id="clipPath6276"><rect
         style="opacity:0.470194;fill:#000000;stroke:none;stroke-width:3.59198;stroke-linecap:square;stroke-linejoin:round;stroke-dasharray:none;stroke-opacity:1;paint-order:stroke fill markers"
         id="rect6278"
         width="176.9025"
         height="48.301678"
         x="2719.916"
         y="129.618" /></clipPath><clipPath
       clipPathUnits="userSpaceOnUse"
       id="clipPath6330"><path
         id="path6332"
         style="opacity:0.470194;fill:#000000;stroke:none;stroke-width:3.59198;stroke-linecap:square;stroke-linejoin:round;stroke-dasharray:none;stroke-opacity:1;paint-order:stroke fill markers"
         d="m 2791.4035,129.61817 11.6474,48.30144 h 93.7679 v -48.30144 z" /></clipPath><clipPath
       clipPathUnits="userSpaceOnUse"
       id="clipPath6342"><path
         id="path6344"
         style="opacity:0.470194;fill:#000000;stroke:none;stroke-width:3.59198;stroke-linecap:square;stroke-linejoin:round;stroke-dasharray:none;stroke-opacity:1;paint-order:stroke fill markers"
         d="m 2803.0509,129.61793 11.6478,48.30196 h 82.1201 v -48.30196 z" /></clipPath><clipPath
       clipPathUnits="userSpaceOnUse"
       id="clipPath6354"><path
         id="path6356"
         style="opacity:0.470194;fill:#000000;stroke:none;stroke-width:3.59198;stroke-linecap:square;stroke-linejoin:round;stroke-dasharray:none;stroke-opacity:1;paint-order:stroke fill markers"
         d="m 2814.6987,129.61822 11.6479,48.30143 h 70.4722 v -48.30143 z" /></clipPath><clipPath
       clipPathUnits="userSpaceOnUse"
       id="clipPath70034-6"><path
         id="path70036-7"
         style="fill:#79859b;fill-opacity:1;stroke:#000000;stroke-width:0.529166;stroke-linecap:butt;stroke-linejoin:miter;stroke-miterlimit:4;stroke-dasharray:none;stroke-opacity:1;paint-order:stroke fill markers"
         d="m 548.06012,-228.10683 c -0.54933,0.003 -1.1882,0.1067 -1.69244,0.3084 -0.26465,0.10586 -0.4501,0.51951 -0.57965,1.02723 -0.0947,-0.0219 -0.23207,-0.038 -0.43842,-0.038 -0.30776,0 -0.57267,0.0326 -0.79688,0.1406 -0.16169,0.0792 -0.28449,0.0998 -0.27791,0.30839 0.029,0.0289 0.4997,0.053 0.78326,0.0822 0.22503,0.0233 0.46138,0.12455 0.59383,0.18481 -0.0582,0.36905 -0.0957,0.7397 -0.11967,1.04821 -0.008,0.1006 -0.014,0.19213 -0.0193,0.27721 -0.002,0.0313 -0.003,0.0569 -0.005,0.0856 -0.003,0.0519 -0.006,0.0995 -0.008,0.14229 -0.001,0.0338 -0.002,0.0593 -0.003,0.0867 -10e-4,0.0349 -6.1e-4,0.0402 -0.002,0.0641 -0.002,0.0558 -0.003,0.0952 -0.003,0.0952 0,0 -0.004,0.006 -0.0147,0.0351 -0.005,0.015 -0.0126,0.0359 -0.0221,0.0663 0,0 0,5.8e-4 0,5.8e-4 -0.002,0.007 -0.007,0.0194 -0.009,0.0272 -0.0189,0.0612 -0.0435,0.14677 -0.08,0.28232 -0.0411,0.15289 -0.0951,0.36254 -0.16561,0.64911 -0.0352,0.14329 -0.0745,0.3059 -0.11854,0.49037 -0.011,0.0461 -0.02,0.0938 -0.0272,0.14286 -0.008,0.049 -0.0123,0.0996 -0.0159,0.15136 -0.003,0.0518 -0.005,0.10499 -0.005,0.1593 -8e-5,0.0452 0.002,0.0909 0.004,0.13776 0.001,0.0241 0.003,0.0486 0.005,0.0731 0.002,0.0275 0.005,0.0554 0.007,0.0833 0.002,0.0274 0.005,0.0549 0.009,0.0828 0.005,0.0466 0.0117,0.0939 0.0193,0.14173 0,0 0,5.8e-4 0,5.8e-4 0.01,0.0608 0.0204,0.1223 0.0329,0.18481 0.0125,0.0625 0.0267,0.12586 0.042,0.18991 0.0153,0.0641 0.032,0.12848 0.0499,0.19388 0.0179,0.0654 0.0369,0.13186 0.0573,0.19842 0.0205,0.0668 0.0424,0.13351 0.0652,0.20125 0.0684,0.20255 0.1466,0.40866 0.23367,0.61622 0.0291,0.0692 0.0593,0.13815 0.0902,0.20749 0,0 0,5.8e-4 0,5.8e-4 0.0307,0.0692 0.0623,0.13834 0.0947,0.20749 0.19494,0.41604 0.41831,0.82966 0.65508,1.21941 0.0747,0.12306 0.15107,0.2435 0.22801,0.36111 h 9.08665 c -0.17402,-2.86414 -1.2584,-5.97176 -1.63459,-6.04829 -0.481,-0.0978 -1.85359,-0.70172 -2.13029,-1.25512 -0.27672,-0.55343 -2.46698,-2.3286 -3.04345,-2.51309 -0.21605,-0.0692 -0.51336,-0.10306 -0.84281,-0.10091 z" /></clipPath><inkscape:path-effect
       effect="fill_between_many"
       method="bsplinespiro"
       autoreverse="false"
       close="false"
       join="false"
       linkedpaths="#path4,0,1"
       id="path-effect5"
       is_visible="true"
       lpeversion="0" /><linearGradient
       inkscape:collect="always"
       xlink:href="#linearGradient16"
       id="linearGradient15"
       x1="21.983398"
       y1="15.260742"
       x2="12.198181"
       y2="31.058704"
       gradientUnits="userSpaceOnUse"
       spreadMethod="pad" /></defs><g
     inkscape:label="圖層 1"
     inkscape:groupmode="layer"
     id="layer1"
     transform="translate(-776.53241,-16.258314)"><path
       style="fill:#6a9503;fill-opacity:1;stroke:none;stroke-width:1.02275;stroke-linecap:round;stroke-linejoin:round;stroke-dasharray:none;stroke-opacity:1;paint-order:stroke fill markers"
       d="m 29.609864,5.0522462 c -3.316311,0.014763 -6.148565,2.6055099 -7.382813,5.5190428 -0.147782,1.654139 1.665223,2.581052 2.114746,4.072754 2.345858,4.791966 1.551015,10.821899 -1.807024,14.943761 -1.068851,0.939346 -0.0111,2.470204 1.247454,2.164639 6.28482,-0.15296 12.746244,-4.25339 14.169922,-10.626466 0.738014,-4.06926 0.332477,-8.559781 -1.773926,-12.1796879 -1.391896,-2.2457479 -3.859946,-3.945083 -6.568359,-3.8940429 z m 1.169922,4.3291017 c 1.541497,-0.161367 1.427269,2.6108211 -0.166016,2.2641601 -1.393505,-0.06247 -1.343202,-2.5037416 0.166016,-2.2641601 z"
       id="path5"
       transform="matrix(0.26458334,0,0,0.26458334,776.53241,16.258314)" /><path
       style="fill:url(#linearGradient15);fill-opacity:1;stroke:none;stroke-width:1.02275;stroke-linecap:round;stroke-linejoin:round;stroke-dasharray:none;stroke-opacity:1;paint-order:stroke fill markers"
       d="m 20.516113,14.198242 c -1.873497,0.446224 -2.591266,2.648859 -3.769435,3.958991 -2.759736,4.061662 -5.701921,8.053134 -8.3584943,12.146967 -0.2292045,1.727365 1.9892443,1.470478 3.0911993,1.423758 3.446184,0.246301 6.935171,-1.120688 9.163929,-3.78607 3.036261,-3.428873 3.590821,-8.686484 1.340087,-12.681146 -0.253619,-0.58116 -0.78772,-1.110823 -1.467286,-1.0625 z"
       id="path7"
       transform="matrix(0.26458334,0,0,0.26458334,776.53241,16.258314)" /><path
       d="m 784.66352,19.040543 h 0.005"
       id="path1"
       style="fill:none;stroke:#000000;stroke-width:1.08241;stroke-linecap:round;stroke-linejoin:round;stroke-dasharray:none" /><path
       d="m 777.84439,24.993749 h 4.65433 c 2.39117,-3e-6 4.82629,-1.461812 4.46139,-4.761575 -0.36489,-3.299764 -3.24751,-3.684496 -4.46147,-1.945284 l -5.41193,7.789261"
       id="path2"
       style="fill:none;stroke:#000000;stroke-width:1.08241;stroke-linecap:round;stroke-linejoin:round;stroke-dasharray:none"
       sodipodi:nodetypes="ccccc" /><path
       d="m 786.84721,19.211325 1.05043,-0.01846 -0.99712,0.500569"
       id="path3"
       style="fill:none;stroke:#000000;stroke-width:1.08241;stroke-linecap:round;stroke-linejoin:round;stroke-dasharray:none"
       sodipodi:nodetypes="ccc" /><path
       d="m 779.79271,24.993749 a 3.2472035,3.2472035 0 0 0 2.07821,-5.742138"
       id="path6"
       style="fill:none;stroke:#000000;stroke-width:1.08241;stroke-linecap:round;stroke-linejoin:round;stroke-dasharray:none" /><circle
       style="fill:#000000;fill-opacity:1;stroke:none;stroke-width:0.900029;stroke-linecap:round;stroke-linejoin:round;stroke-dasharray:none;stroke-opacity:1;paint-order:stroke fill markers"
       id="path18"
       cx="783.07288"
       cy="26.741749"
       r="1.0494555" /></g></svg>
