<svg width="45" height="45" viewBox="0 0 11.906 11.906" xml:space="preserve" xmlns="http://www.w3.org/2000/svg"><g transform="translate(-757.405 -18.924)"><path style="fill:#ced4da;fill-opacity:1;stroke:#ced4da;stroke-width:.376543;stroke-linecap:round;stroke-linejoin:round;stroke-dasharray:none;stroke-opacity:1;paint-order:stroke fill markers" d="M57.967-102.249c-1.656.006-2.684 1.527-3.914 2.404-4.475 3.84-8.987 7.642-13.326 11.633-.666 1.002-.334 2.313-.454 3.45-.004 5.84-.1 11.685.065 17.525.002 1.685 1.768 2.878 3.357 2.658 9.794.099 19.592.12 29.385-.04 1.617-.077 2.898-1.718 2.715-3.308.112-6.366.155-12.74-.041-19.105-.215-1.671-1.935-2.458-2.996-3.557-4.42-3.792-8.806-7.63-13.324-11.305-.44-.257-.96-.363-1.467-.355z" transform="translate(748.007 46.947) scale(.26458)"/><g style="fill:none;stroke:currentColor;stroke-width:2.00017;stroke-linecap:round;stroke-linejoin:round;stroke-dasharray:none"><path d="M3 10a2 2 0 0 1 .709-1.528l7-5.999a2 2 0 0 1 2.582 0l7 5.999A2 2 0 0 1 21 10v9a2 2 0 0 1-2 2H5a2 2 0 0 1-2-2Z" style="stroke-width:2.00017;stroke-dasharray:none" transform="translate(756.66 18.458) scale(.55809)"/></g><circle style="fill:#000;fill-opacity:.870588;stroke-width:1.0987;stroke-linecap:round;stroke-linejoin:round;-inkscape-stroke:none;paint-order:stroke fill markers" cx="761.596" cy="25.107" r=".75"/><circle style="fill:#000;fill-opacity:.870588;stroke-width:1.0987;stroke-linecap:round;stroke-linejoin:round;-inkscape-stroke:none;paint-order:stroke fill markers" cx="765.119" cy="25.107" r=".75"/><text xml:space="preserve" style="font-style:normal;font-variant:normal;font-weight:400;font-stretch:normal;font-size:2.70226px;line-height:1.1;font-family:Monospace;-inkscape-font-specification:Monospace;letter-spacing:-.184246px;word-spacing:0;text-orientation:upright;fill:none;fill-opacity:.870588;stroke:#000;stroke-width:.277506;stroke-linecap:round;stroke-linejoin:round;stroke-dasharray:none;stroke-opacity:1;paint-order:stroke fill markers" x="762.748" y="28.405"><tspan style="font-style:normal;font-variant:normal;font-weight:400;font-stretch:normal;font-family:Monospace;-inkscape-font-specification:Monospace;stroke-width:.277506" x="762.748" y="28.405">3</tspan></text></g></svg>