<?xml version="1.0" encoding="UTF-8" standalone="no"?>
<!-- Created with Inkscape (http://www.inkscape.org/) -->

<svg
   width="11.90625mm"
   height="11.90625mm"
   viewBox="0 0 11.906251 11.90625"
   version="1.1"
   id="svg5"
   inkscape:version="1.4 (86a8ad7, 2024-10-11)"
   sodipodi:docname="icon.svg"
   xml:space="preserve"
   xmlns:inkscape="http://www.inkscape.org/namespaces/inkscape"
   xmlns:sodipodi="http://sodipodi.sourceforge.net/DTD/sodipodi-0.dtd"
   xmlns:xlink="http://www.w3.org/1999/xlink"
   xmlns="http://www.w3.org/2000/svg"
   xmlns:svg="http://www.w3.org/2000/svg"><sodipodi:namedview
     id="namedview7"
     pagecolor="#ffffff"
     bordercolor="#666666"
     borderopacity="1.0"
     inkscape:pageshadow="2"
     inkscape:pageopacity="0.0"
     inkscape:pagecheckerboard="0"
     inkscape:document-units="px"
     showgrid="false"
     showborder="true"
     inkscape:zoom="3.9999998"
     inkscape:cx="12.125001"
     inkscape:cy="20.625001"
     inkscape:window-width="1920"
     inkscape:window-height="1009"
     inkscape:window-x="-8"
     inkscape:window-y="444"
     inkscape:window-maximized="1"
     inkscape:current-layer="layer1"
     inkscape:showpageshadow="2"
     inkscape:deskcolor="#d1d1d1" /><defs
     id="defs2"><inkscape:path-effect
       effect="skeletal"
       id="path-effect6"
       is_visible="true"
       lpeversion="1"
       pattern="M 0,4.9921383 C 0,2.2364779 2.2364779,0 4.9921383,0 c 2.7556603,0 4.9921382,2.2364779 4.9921382,4.9921383 0,2.7556603 -2.2364779,4.9921382 -4.9921382,4.9921382 C 2.2364779,9.9842765 0,7.7477986 0,4.9921383 Z"
       copytype="single_stretched"
       prop_scale="1"
       scale_y_rel="false"
       spacing="0"
       normal_offset="0"
       tang_offset="0"
       prop_units="false"
       vertical_pattern="false"
       hide_knot="false"
       fuse_tolerance="0" /><inkscape:path-effect
       effect="powerstroke"
       id="path-effect4"
       is_visible="true"
       lpeversion="1.3"
       scale_width="1"
       interpolator_type="CubicBezierJohan"
       interpolator_beta="0.2"
       start_linecap_type="zerowidth"
       end_linecap_type="zerowidth"
       offset_points="0,1.49"
       linejoin_type="extrp_arc"
       miter_limit="4"
       not_jump="false"
       sort_points="true"
       message="" /><linearGradient
       inkscape:collect="always"
       id="linearGradient1179"><stop
         style="stop-color:#c8c4b7;stop-opacity:1"
         offset="0"
         id="stop1175" /><stop
         style="stop-color:#e3e2db;stop-opacity:1"
         offset="1"
         id="stop1177" /></linearGradient><clipPath
       clipPathUnits="userSpaceOnUse"
       id="clipPath70034"><path
         id="path70036"
         style="fill:#79859b;fill-opacity:1;stroke:#000000;stroke-width:0.529166;stroke-linecap:butt;stroke-linejoin:miter;stroke-miterlimit:4;stroke-dasharray:none;stroke-opacity:1;paint-order:stroke fill markers"
         d="m 548.06012,-228.10683 c -0.54933,0.003 -1.1882,0.1067 -1.69244,0.3084 -0.26465,0.10586 -0.4501,0.51951 -0.57965,1.02723 -0.0947,-0.0219 -0.23207,-0.038 -0.43842,-0.038 -0.30776,0 -0.57267,0.0326 -0.79688,0.1406 -0.16169,0.0792 -0.28449,0.0998 -0.27791,0.30839 0.029,0.0289 0.4997,0.053 0.78326,0.0822 0.22503,0.0233 0.46138,0.12455 0.59383,0.18481 -0.0582,0.36905 -0.0957,0.7397 -0.11967,1.04821 -0.008,0.1006 -0.014,0.19213 -0.0193,0.27721 -0.002,0.0313 -0.003,0.0569 -0.005,0.0856 -0.003,0.0519 -0.006,0.0995 -0.008,0.14229 -0.001,0.0338 -0.002,0.0593 -0.003,0.0867 -10e-4,0.0349 -6.1e-4,0.0402 -0.002,0.0641 -0.002,0.0558 -0.003,0.0952 -0.003,0.0952 0,0 -0.004,0.006 -0.0147,0.0351 -0.005,0.015 -0.0126,0.0359 -0.0221,0.0663 0,0 0,5.8e-4 0,5.8e-4 -0.002,0.007 -0.007,0.0194 -0.009,0.0272 -0.0189,0.0612 -0.0435,0.14677 -0.08,0.28232 -0.0411,0.15289 -0.0951,0.36254 -0.16561,0.64911 -0.0352,0.14329 -0.0745,0.3059 -0.11854,0.49037 -0.011,0.0461 -0.02,0.0938 -0.0272,0.14286 -0.008,0.049 -0.0123,0.0996 -0.0159,0.15136 -0.003,0.0518 -0.005,0.10499 -0.005,0.1593 -8e-5,0.0452 0.002,0.0909 0.004,0.13776 0.001,0.0241 0.003,0.0486 0.005,0.0731 0.002,0.0275 0.005,0.0554 0.007,0.0833 0.002,0.0274 0.005,0.0549 0.009,0.0828 0.005,0.0466 0.0117,0.0939 0.0193,0.14173 0,0 0,5.8e-4 0,5.8e-4 0.01,0.0608 0.0204,0.1223 0.0329,0.18481 0.0125,0.0625 0.0267,0.12586 0.042,0.18991 0.0153,0.0641 0.032,0.12848 0.0499,0.19388 0.0179,0.0654 0.0369,0.13186 0.0573,0.19842 0.0205,0.0668 0.0424,0.13351 0.0652,0.20125 0.0684,0.20255 0.1466,0.40866 0.23367,0.61622 0.0291,0.0692 0.0593,0.13815 0.0902,0.20749 0,0 0,5.8e-4 0,5.8e-4 0.0307,0.0692 0.0623,0.13834 0.0947,0.20749 0.19494,0.41604 0.41831,0.82966 0.65508,1.21941 0.0747,0.12306 0.15107,0.2435 0.22801,0.36111 h 9.08665 c -0.17402,-2.86414 -1.2584,-5.97176 -1.63459,-6.04829 -0.481,-0.0978 -1.85359,-0.70172 -2.13029,-1.25512 -0.27672,-0.55343 -2.46698,-2.3286 -3.04345,-2.51309 -0.21605,-0.0692 -0.51336,-0.10306 -0.84281,-0.10091 z" /></clipPath><clipPath
       clipPathUnits="userSpaceOnUse"
       id="clipPath70034-5"><path
         id="path70036-8"
         style="fill:#79859b;fill-opacity:1;stroke:#000000;stroke-width:0.529166;stroke-linecap:butt;stroke-linejoin:miter;stroke-miterlimit:4;stroke-dasharray:none;stroke-opacity:1;paint-order:stroke fill markers"
         d="m 548.06012,-228.10683 c -0.54933,0.003 -1.1882,0.1067 -1.69244,0.3084 -0.26465,0.10586 -0.4501,0.51951 -0.57965,1.02723 -0.0947,-0.0219 -0.23207,-0.038 -0.43842,-0.038 -0.30776,0 -0.57267,0.0326 -0.79688,0.1406 -0.16169,0.0792 -0.28449,0.0998 -0.27791,0.30839 0.029,0.0289 0.4997,0.053 0.78326,0.0822 0.22503,0.0233 0.46138,0.12455 0.59383,0.18481 -0.0582,0.36905 -0.0957,0.7397 -0.11967,1.04821 -0.008,0.1006 -0.014,0.19213 -0.0193,0.27721 -0.002,0.0313 -0.003,0.0569 -0.005,0.0856 -0.003,0.0519 -0.006,0.0995 -0.008,0.14229 -0.001,0.0338 -0.002,0.0593 -0.003,0.0867 -10e-4,0.0349 -6.1e-4,0.0402 -0.002,0.0641 -0.002,0.0558 -0.003,0.0952 -0.003,0.0952 0,0 -0.004,0.006 -0.0147,0.0351 -0.005,0.015 -0.0126,0.0359 -0.0221,0.0663 0,0 0,5.8e-4 0,5.8e-4 -0.002,0.007 -0.007,0.0194 -0.009,0.0272 -0.0189,0.0612 -0.0435,0.14677 -0.08,0.28232 -0.0411,0.15289 -0.0951,0.36254 -0.16561,0.64911 -0.0352,0.14329 -0.0745,0.3059 -0.11854,0.49037 -0.011,0.0461 -0.02,0.0938 -0.0272,0.14286 -0.008,0.049 -0.0123,0.0996 -0.0159,0.15136 -0.003,0.0518 -0.005,0.10499 -0.005,0.1593 -8e-5,0.0452 0.002,0.0909 0.004,0.13776 0.001,0.0241 0.003,0.0486 0.005,0.0731 0.002,0.0275 0.005,0.0554 0.007,0.0833 0.002,0.0274 0.005,0.0549 0.009,0.0828 0.005,0.0466 0.0117,0.0939 0.0193,0.14173 0,0 0,5.8e-4 0,5.8e-4 0.01,0.0608 0.0204,0.1223 0.0329,0.18481 0.0125,0.0625 0.0267,0.12586 0.042,0.18991 0.0153,0.0641 0.032,0.12848 0.0499,0.19388 0.0179,0.0654 0.0369,0.13186 0.0573,0.19842 0.0205,0.0668 0.0424,0.13351 0.0652,0.20125 0.0684,0.20255 0.1466,0.40866 0.23367,0.61622 0.0291,0.0692 0.0593,0.13815 0.0902,0.20749 0,0 0,5.8e-4 0,5.8e-4 0.0307,0.0692 0.0623,0.13834 0.0947,0.20749 0.19494,0.41604 0.41831,0.82966 0.65508,1.21941 0.0747,0.12306 0.15107,0.2435 0.22801,0.36111 h 9.08665 c -0.17402,-2.86414 -1.2584,-5.97176 -1.63459,-6.04829 -0.481,-0.0978 -1.85359,-0.70172 -2.13029,-1.25512 -0.27672,-0.55343 -2.46698,-2.3286 -3.04345,-2.51309 -0.21605,-0.0692 -0.51336,-0.10306 -0.84281,-0.10091 z" /></clipPath><clipPath
       clipPathUnits="userSpaceOnUse"
       id="clipPath46021"><rect
         style="fill:#e6e6e6;fill-opacity:1;stroke:none;stroke-width:0.529164;stroke-linecap:square;stroke-linejoin:round;paint-order:stroke fill markers;stop-color:#000000"
         id="rect46023"
         width="95.77916"
         height="59.861977"
         x="1474.7316"
         y="-289.7153" /></clipPath><clipPath
       clipPathUnits="userSpaceOnUse"
       id="clipPath1582"><rect
         style="fill:url(#linearGradient1586);fill-opacity:1;stroke-width:0.407607"
         id="rect1584"
         width="338.66666"
         height="211.66667"
         x="1148.515"
         y="46.946522" /></clipPath><linearGradient
       inkscape:collect="always"
       xlink:href="#linearGradient1179"
       id="linearGradient1586"
       gradientUnits="userSpaceOnUse"
       x1="1154.1417"
       y1="137.87424"
       x2="1474.7041"
       y2="169.00879"
       gradientTransform="translate(8.5416667e-6)" /><clipPath
       clipPathUnits="userSpaceOnUse"
       id="clipPath6070"><rect
         style="opacity:0.470194;fill:#000000;stroke:none;stroke-width:3.45591;stroke-linecap:square;stroke-linejoin:round;stroke-dasharray:none;stroke-opacity:1;paint-order:stroke fill markers"
         id="rect6072"
         width="185.63359"
         height="57.397923"
         x="3061.4553"
         y="48.925018" /></clipPath><clipPath
       clipPathUnits="userSpaceOnUse"
       id="clipPath6080"><rect
         style="opacity:0.470194;fill:#000000;stroke:none;stroke-width:3.45591;stroke-linecap:square;stroke-linejoin:round;stroke-dasharray:none;stroke-opacity:1;paint-order:stroke fill markers"
         id="rect6082"
         width="185.63359"
         height="57.397923"
         x="2865.6606"
         y="48.925018" /></clipPath><clipPath
       clipPathUnits="userSpaceOnUse"
       id="clipPath6101"><rect
         style="opacity:0.470194;fill:#000000;stroke:none;stroke-width:3.43892;stroke-linecap:square;stroke-linejoin:round;stroke-dasharray:none;stroke-opacity:1;paint-order:stroke fill markers"
         id="rect6103"
         width="185.63359"
         height="56.835197"
         x="2770.4092"
         y="49.487728" /></clipPath><clipPath
       clipPathUnits="userSpaceOnUse"
       id="clipPath6260"><rect
         style="opacity:0.470194;fill:#000000;stroke:none;stroke-width:3.59198;stroke-linecap:square;stroke-linejoin:round;stroke-dasharray:none;stroke-opacity:1;paint-order:stroke fill markers"
         id="rect6262"
         width="176.9025"
         height="48.301678"
         x="2719.916"
         y="129.618" /></clipPath><clipPath
       clipPathUnits="userSpaceOnUse"
       id="clipPath6264"><rect
         style="opacity:0.470194;fill:#000000;stroke:none;stroke-width:3.59198;stroke-linecap:square;stroke-linejoin:round;stroke-dasharray:none;stroke-opacity:1;paint-order:stroke fill markers"
         id="rect6266"
         width="176.9025"
         height="48.301678"
         x="2719.916"
         y="129.618" /></clipPath><clipPath
       clipPathUnits="userSpaceOnUse"
       id="clipPath6276"><rect
         style="opacity:0.470194;fill:#000000;stroke:none;stroke-width:3.59198;stroke-linecap:square;stroke-linejoin:round;stroke-dasharray:none;stroke-opacity:1;paint-order:stroke fill markers"
         id="rect6278"
         width="176.9025"
         height="48.301678"
         x="2719.916"
         y="129.618" /></clipPath><clipPath
       clipPathUnits="userSpaceOnUse"
       id="clipPath6330"><path
         id="path6332"
         style="opacity:0.470194;fill:#000000;stroke:none;stroke-width:3.59198;stroke-linecap:square;stroke-linejoin:round;stroke-dasharray:none;stroke-opacity:1;paint-order:stroke fill markers"
         d="m 2791.4035,129.61817 11.6474,48.30144 h 93.7679 v -48.30144 z" /></clipPath><clipPath
       clipPathUnits="userSpaceOnUse"
       id="clipPath6342"><path
         id="path6344"
         style="opacity:0.470194;fill:#000000;stroke:none;stroke-width:3.59198;stroke-linecap:square;stroke-linejoin:round;stroke-dasharray:none;stroke-opacity:1;paint-order:stroke fill markers"
         d="m 2803.0509,129.61793 11.6478,48.30196 h 82.1201 v -48.30196 z" /></clipPath><clipPath
       clipPathUnits="userSpaceOnUse"
       id="clipPath6354"><path
         id="path6356"
         style="opacity:0.470194;fill:#000000;stroke:none;stroke-width:3.59198;stroke-linecap:square;stroke-linejoin:round;stroke-dasharray:none;stroke-opacity:1;paint-order:stroke fill markers"
         d="m 2814.6987,129.61822 11.6479,48.30143 h 70.4722 v -48.30143 z" /></clipPath><clipPath
       clipPathUnits="userSpaceOnUse"
       id="clipPath70034-6"><path
         id="path70036-7"
         style="fill:#79859b;fill-opacity:1;stroke:#000000;stroke-width:0.529166;stroke-linecap:butt;stroke-linejoin:miter;stroke-miterlimit:4;stroke-dasharray:none;stroke-opacity:1;paint-order:stroke fill markers"
         d="m 548.06012,-228.10683 c -0.54933,0.003 -1.1882,0.1067 -1.69244,0.3084 -0.26465,0.10586 -0.4501,0.51951 -0.57965,1.02723 -0.0947,-0.0219 -0.23207,-0.038 -0.43842,-0.038 -0.30776,0 -0.57267,0.0326 -0.79688,0.1406 -0.16169,0.0792 -0.28449,0.0998 -0.27791,0.30839 0.029,0.0289 0.4997,0.053 0.78326,0.0822 0.22503,0.0233 0.46138,0.12455 0.59383,0.18481 -0.0582,0.36905 -0.0957,0.7397 -0.11967,1.04821 -0.008,0.1006 -0.014,0.19213 -0.0193,0.27721 -0.002,0.0313 -0.003,0.0569 -0.005,0.0856 -0.003,0.0519 -0.006,0.0995 -0.008,0.14229 -0.001,0.0338 -0.002,0.0593 -0.003,0.0867 -10e-4,0.0349 -6.1e-4,0.0402 -0.002,0.0641 -0.002,0.0558 -0.003,0.0952 -0.003,0.0952 0,0 -0.004,0.006 -0.0147,0.0351 -0.005,0.015 -0.0126,0.0359 -0.0221,0.0663 0,0 0,5.8e-4 0,5.8e-4 -0.002,0.007 -0.007,0.0194 -0.009,0.0272 -0.0189,0.0612 -0.0435,0.14677 -0.08,0.28232 -0.0411,0.15289 -0.0951,0.36254 -0.16561,0.64911 -0.0352,0.14329 -0.0745,0.3059 -0.11854,0.49037 -0.011,0.0461 -0.02,0.0938 -0.0272,0.14286 -0.008,0.049 -0.0123,0.0996 -0.0159,0.15136 -0.003,0.0518 -0.005,0.10499 -0.005,0.1593 -8e-5,0.0452 0.002,0.0909 0.004,0.13776 0.001,0.0241 0.003,0.0486 0.005,0.0731 0.002,0.0275 0.005,0.0554 0.007,0.0833 0.002,0.0274 0.005,0.0549 0.009,0.0828 0.005,0.0466 0.0117,0.0939 0.0193,0.14173 0,0 0,5.8e-4 0,5.8e-4 0.01,0.0608 0.0204,0.1223 0.0329,0.18481 0.0125,0.0625 0.0267,0.12586 0.042,0.18991 0.0153,0.0641 0.032,0.12848 0.0499,0.19388 0.0179,0.0654 0.0369,0.13186 0.0573,0.19842 0.0205,0.0668 0.0424,0.13351 0.0652,0.20125 0.0684,0.20255 0.1466,0.40866 0.23367,0.61622 0.0291,0.0692 0.0593,0.13815 0.0902,0.20749 0,0 0,5.8e-4 0,5.8e-4 0.0307,0.0692 0.0623,0.13834 0.0947,0.20749 0.19494,0.41604 0.41831,0.82966 0.65508,1.21941 0.0747,0.12306 0.15107,0.2435 0.22801,0.36111 h 9.08665 c -0.17402,-2.86414 -1.2584,-5.97176 -1.63459,-6.04829 -0.481,-0.0978 -1.85359,-0.70172 -2.13029,-1.25512 -0.27672,-0.55343 -2.46698,-2.3286 -3.04345,-2.51309 -0.21605,-0.0692 -0.51336,-0.10306 -0.84281,-0.10091 z" /></clipPath><inkscape:path-effect
       effect="fill_between_many"
       method="bsplinespiro"
       autoreverse="false"
       close="false"
       join="false"
       linkedpaths="#path4,0,1"
       id="path-effect5"
       is_visible="true"
       lpeversion="0" /></defs><g
     inkscape:label="圖層 1"
     inkscape:groupmode="layer"
     id="layer1"
     transform="translate(-776.53241,-16.258314)"><path
       id="path127"
       style="fill:#000000;fill-opacity:1;stroke:#4d4d4d;stroke-width:0.936687;stroke-linecap:round;stroke-linejoin:round;paint-order:stroke fill markers"
       d="m 778.04171,16.726657 c -0.0359,2e-5 -0.0714,0.002 -0.10637,0.0055 -0.0466,0.0048 -0.0917,0.01373 -0.13628,0.0244 -0.0115,0.0028 -0.023,0.0056 -0.0343,0.0088 -0.0437,0.01208 -0.0867,0.02586 -0.12794,0.04332 -0.0311,0.01318 -0.0616,0.0279 -0.0912,0.04393 -0.0294,0.01602 -0.0581,0.03333 -0.0859,0.05207 -0.0553,0.03735 -0.10674,0.08013 -0.15376,0.127117 -0.01,0.0097 -0.0185,0.02022 -0.0278,0.0303 -0.002,0.0028 -0.005,0.0055 -0.007,0.0084 -0.0106,0.01176 -0.0218,0.02295 -0.032,0.03519 v 2e-4 c -0.0212,0.02566 -0.0413,0.0523 -0.06,0.07993 v 2.05e-4 c -0.0186,0.02763 -0.036,0.05619 -0.0521,0.08563 -0.0263,0.04818 -0.0476,0.09912 -0.0661,0.151523 -0.004,0.01173 -0.01,0.02306 -0.0128,0.03499 v 2.04e-4 c -0.0202,0.06511 -0.0343,0.13288 -0.0415,0.202775 v 2.05e-4 c -1.7e-4,0.0016 -4e-5,0.0035 -2e-4,0.0051 -0.003,0.0333 -0.005,0.06694 -0.005,0.10108 v 2.02e-4 8.331131 2.05e-4 c 3e-5,0.03585 0.002,0.07125 0.005,0.106167 0,6.7e-5 -10e-6,1.38e-4 0,2.06e-4 0.003,0.03491 0.008,0.06931 0.0159,0.103113 10e-6,6.3e-5 -1e-5,1.38e-4 0,2.01e-4 0.007,0.03381 0.0155,0.06714 0.0256,0.09966 0.0203,0.06516 0.0468,0.127531 0.0789,0.186504 0.0321,0.05893 0.0697,0.114405 0.11207,0.165763 4e-5,4e-5 -4e-5,1.62e-4 0,2.01e-4 0.0212,0.02562 0.0436,0.05015 0.0671,0.07362 7.8e-4,7.88e-4 0.001,0.0016 0.002,0.0023 l 0.55463,0.554428 c 0.18813,0.188524 0.44834,0.304877 0.73565,0.304877 h 8.33113 c 0.57463,0 1.04075,-0.465901 1.04114,-1.040524 v -8.33136 c -3.9e-4,-0.287312 -0.11695,-0.547317 -0.30508,-0.735447 l -0.55647,-0.556669 c -10e-5,-1.02e-4 -3e-4,-1.02e-4 -3.9e-4,-2.04e-4 -0.047,-0.04705 -0.0985,-0.08973 -0.15376,-0.127118 -6e-5,-3.2e-5 -1.6e-4,3.5e-5 -2e-4,0 -0.11068,-0.07478 -0.2366,-0.128825 -0.372,-0.156608 -6e-5,-1.2e-5 -1.4e-4,1.5e-5 -2e-4,0 -0.0677,-0.01385 -0.13773,-0.02129 -0.20949,-0.02137 h -2.1e-4 z" /><path
       id="path128"
       style="fill:#88aa00;fill-opacity:1;stroke-width:0.393578;stroke-linecap:round;stroke-linejoin:round;paint-order:stroke fill markers"
       d="m 778.04164,16.726618 c -0.0359,2.4e-5 -0.0714,0.002 -0.10636,0.0055 -0.10494,0.01071 -0.2052,0.03696 -0.29857,0.07647 -0.0311,0.01318 -0.0616,0.0279 -0.0912,0.04393 -0.0589,0.03204 -0.11442,0.06968 -0.16577,0.112067 -0.0256,0.02118 -0.0503,0.0436 -0.0738,0.06711 -0.0124,0.01236 -0.0236,0.0257 -0.0354,0.03865 -0.0106,0.01173 -0.0218,0.02299 -0.0319,0.03519 -4e-5,3.9e-5 3e-5,1.65e-4 0,2.04e-4 -0.0212,0.02567 -0.0411,0.0523 -0.0598,0.07993 -5e-5,8e-5 -1.5e-4,1.22e-4 -2e-4,2.01e-4 -0.0374,0.0553 -0.0695,0.114386 -0.0958,0.176543 -0.008,0.01976 -0.0151,0.04025 -0.0223,0.06061 -0.004,0.01173 -0.01,0.02306 -0.0128,0.03499 -2e-5,6e-5 3e-5,1.42e-4 0,2.01e-4 -0.0202,0.06511 -0.0343,0.132884 -0.0415,0.202779 -1e-5,6.7e-5 0,1.34e-4 0,2e-4 -1.7e-4,0.0016 -5e-5,0.0035 -2.2e-4,0.0051 -0.003,0.03333 -0.005,0.06709 -0.005,0.101293 v 8.331337 c 3.9e-4,0.287311 0.11695,0.547316 0.30509,0.735447 l 0.55687,0.556668 c 0.18813,0.188523 0.44833,0.304876 0.73565,0.304876 h 8.33113 c 0.57462,0 1.04074,-0.465904 1.04113,-1.040528 v -8.331333 c -3.9e-4,-0.287311 -0.11694,-0.547317 -0.30507,-0.735447 l -0.55647,-0.556672 c -0.18852,-0.188524 -0.44874,-0.304889 -0.73606,-0.305282 z" /><path
       style="fill:#abc837;fill-opacity:1;stroke-width:0.393578;stroke-linecap:round;stroke-linejoin:round;paint-order:stroke fill markers"
       d="m 778.04176,16.726737 c -0.5747,2.82e-4 -1.04054,0.466034 -1.04093,1.040733 v 8.331332 c 3.9e-4,0.574699 0.46623,1.040451 1.04093,1.040733 h 8.33113 c 0.5747,-2.82e-4 1.04054,-0.466034 1.04093,-1.040733 V 17.76747 c -3.9e-4,-0.574699 -0.46623,-1.040451 -1.04093,-1.040733 z"
       id="path129" /><path
       id="path130"
       style="fill:#f9f9f9;stroke:#4d4d4d;stroke-width:0.936687;stroke-linecap:round;stroke-linejoin:round;paint-order:stroke fill markers"
       d="m 780.12479,18.80949 c -0.5769,0 -1.04134,0.464437 -1.04134,1.041339 v 1.041339 h 1.04134 4.16536 1.04134 v -1.041339 c 0,-0.576902 -0.46444,-1.041339 -1.04134,-1.041339 z m -1.04134,4.165361 v 1.04134 c 0,0.576901 0.46444,1.041343 1.04134,1.041343 h 4.16536 c 0.5769,0 1.04134,-0.464442 1.04134,-1.041343 v -1.04134 h -1.04134 -4.16536 z" /><path
       id="path131"
       style="fill:#cccccc;stroke-width:0.393578;stroke-linecap:round;stroke-linejoin:round;paint-order:stroke fill markers"
       d="m 780.12474,18.809502 c -0.10818,0 -0.21243,0.01625 -0.31037,0.04658 -0.13059,0.04045 -0.2499,0.105824 -0.35267,0.190574 -0.0514,0.04238 -0.0986,0.08956 -0.14095,0.140948 -0.0423,0.0514 -0.0798,0.106924 -0.11187,0.165964 -4e-5,8.2e-5 -1.5e-4,1.21e-4 -2e-4,2.04e-4 -0.0319,0.05897 -0.0583,0.12149 -0.0785,0.186709 -0.0202,0.0653 -0.0342,0.133396 -0.0413,0.20359 -0.003,0.03511 -0.005,0.07071 -0.005,0.106778 v 1.04134 h 0.55646 v -0.484876 c 0,-0.576985 0.46436,-1.04134 1.04134,-1.04134 h 4.16557 c 0.14312,0 0.27949,0.02865 0.40352,0.08054 -0.15725,-0.37495 -0.52704,-0.637009 -0.9604,-0.637009 z m -1.04115,4.165365 v 1.041134 c 0,0.03606 0.001,0.07169 0.005,0.106782 1e-5,6.3e-5 0,1.34e-4 0,2.01e-4 0.007,0.07011 0.0211,0.138174 0.0413,0.203389 3e-5,5.9e-5 -1e-5,1.38e-4 0,2.01e-4 0.0202,0.06522 0.0466,0.127535 0.0785,0.186508 3e-5,5.1e-5 -3e-5,1.5e-4 0,2e-4 0.016,0.02948 0.0335,0.05797 0.0521,0.08563 0.014,0.0207 0.0293,0.0404 0.0448,0.06 0.005,0.0066 0.01,0.01366 0.015,0.02015 6e-5,7.1e-5 1.5e-4,1.29e-4 2.1e-4,2e-4 0.0212,0.02562 0.0435,0.05034 0.0669,0.07384 l 2.1e-4,2.01e-4 c 0.0945,0.0946 0.20749,0.170737 0.33294,0.223319 -0.0521,-0.124173 -0.0808,-0.260662 -0.0808,-0.404129 v -1.041339 h 1.04133 4.16557 0.48447 v -0.556266 h -1.04134 -4.16536 z m 0.63722,2.001732 c 0.0311,0.01302 0.0628,0.02456 0.0954,0.03459 -0.0325,-0.01 -0.0644,-0.02157 -0.0954,-0.03459 z m 0.0954,0.03459 c 0.0974,0.02999 0.20102,0.04637 0.30854,0.04637 h 4.16536 c 0.10817,0 0.21242,-0.01646 0.31036,-0.04678 -0.0979,0.03035 -0.20217,0.04658 -0.31036,0.04658 h -4.16516 c -0.1076,0 -0.21125,-0.01614 -0.30874,-0.04617 z m 4.78426,-3.93e-4 c 0.16329,-0.05057 0.30906,-0.14 0.42672,-0.257692 -0.11767,0.117633 -0.26345,0.207137 -0.42672,0.257692 z"
       sodipodi:nodetypes="ssssscsssccssscsscsscscscssscsscsccccccccccccsscsscccc" /></g></svg>
