<?xml version="1.0" encoding="UTF-8" standalone="no"?>
<!-- Created with Inkscape (http://www.inkscape.org/) -->

<svg
   width="11.90625mm"
   height="11.90625mm"
   viewBox="0 0 11.906251 11.90625"
   version="1.1"
   id="svg5"
   inkscape:version="1.4 (86a8ad7, 2024-10-11)"
   sodipodi:docname="icon.svg"
   xml:space="preserve"
   xmlns:inkscape="http://www.inkscape.org/namespaces/inkscape"
   xmlns:sodipodi="http://sodipodi.sourceforge.net/DTD/sodipodi-0.dtd"
   xmlns:xlink="http://www.w3.org/1999/xlink"
   xmlns="http://www.w3.org/2000/svg"
   xmlns:svg="http://www.w3.org/2000/svg"><sodipodi:namedview
     id="namedview7"
     pagecolor="#ffffff"
     bordercolor="#666666"
     borderopacity="1.0"
     inkscape:pageshadow="2"
     inkscape:pageopacity="0.0"
     inkscape:pagecheckerboard="0"
     inkscape:document-units="px"
     showgrid="false"
     showborder="true"
     inkscape:zoom="2.828427"
     inkscape:cx="79.549517"
     inkscape:cy="26.693282"
     inkscape:window-width="1920"
     inkscape:window-height="1009"
     inkscape:window-x="-8"
     inkscape:window-y="444"
     inkscape:window-maximized="1"
     inkscape:current-layer="layer1"
     inkscape:showpageshadow="2"
     inkscape:deskcolor="#d1d1d1" /><defs
     id="defs2"><inkscape:path-effect
       effect="skeletal"
       id="path-effect6"
       is_visible="true"
       lpeversion="1"
       pattern="M 0,4.9921383 C 0,2.2364779 2.2364779,0 4.9921383,0 c 2.7556603,0 4.9921382,2.2364779 4.9921382,4.9921383 0,2.7556603 -2.2364779,4.9921382 -4.9921382,4.9921382 C 2.2364779,9.9842765 0,7.7477986 0,4.9921383 Z"
       copytype="single_stretched"
       prop_scale="1"
       scale_y_rel="false"
       spacing="0"
       normal_offset="0"
       tang_offset="0"
       prop_units="false"
       vertical_pattern="false"
       hide_knot="false"
       fuse_tolerance="0" /><inkscape:path-effect
       effect="powerstroke"
       id="path-effect4"
       is_visible="true"
       lpeversion="1.3"
       scale_width="1"
       interpolator_type="CubicBezierJohan"
       interpolator_beta="0.2"
       start_linecap_type="zerowidth"
       end_linecap_type="zerowidth"
       offset_points="0,1.49"
       linejoin_type="extrp_arc"
       miter_limit="4"
       not_jump="false"
       sort_points="true"
       message="" /><linearGradient
       inkscape:collect="always"
       id="linearGradient1179"><stop
         style="stop-color:#c8c4b7;stop-opacity:1"
         offset="0"
         id="stop1175" /><stop
         style="stop-color:#e3e2db;stop-opacity:1"
         offset="1"
         id="stop1177" /></linearGradient><clipPath
       clipPathUnits="userSpaceOnUse"
       id="clipPath70034"><path
         id="path70036"
         style="fill:#79859b;fill-opacity:1;stroke:#000000;stroke-width:0.529166;stroke-linecap:butt;stroke-linejoin:miter;stroke-miterlimit:4;stroke-dasharray:none;stroke-opacity:1;paint-order:stroke fill markers"
         d="m 548.06012,-228.10683 c -0.54933,0.003 -1.1882,0.1067 -1.69244,0.3084 -0.26465,0.10586 -0.4501,0.51951 -0.57965,1.02723 -0.0947,-0.0219 -0.23207,-0.038 -0.43842,-0.038 -0.30776,0 -0.57267,0.0326 -0.79688,0.1406 -0.16169,0.0792 -0.28449,0.0998 -0.27791,0.30839 0.029,0.0289 0.4997,0.053 0.78326,0.0822 0.22503,0.0233 0.46138,0.12455 0.59383,0.18481 -0.0582,0.36905 -0.0957,0.7397 -0.11967,1.04821 -0.008,0.1006 -0.014,0.19213 -0.0193,0.27721 -0.002,0.0313 -0.003,0.0569 -0.005,0.0856 -0.003,0.0519 -0.006,0.0995 -0.008,0.14229 -0.001,0.0338 -0.002,0.0593 -0.003,0.0867 -10e-4,0.0349 -6.1e-4,0.0402 -0.002,0.0641 -0.002,0.0558 -0.003,0.0952 -0.003,0.0952 0,0 -0.004,0.006 -0.0147,0.0351 -0.005,0.015 -0.0126,0.0359 -0.0221,0.0663 0,0 0,5.8e-4 0,5.8e-4 -0.002,0.007 -0.007,0.0194 -0.009,0.0272 -0.0189,0.0612 -0.0435,0.14677 -0.08,0.28232 -0.0411,0.15289 -0.0951,0.36254 -0.16561,0.64911 -0.0352,0.14329 -0.0745,0.3059 -0.11854,0.49037 -0.011,0.0461 -0.02,0.0938 -0.0272,0.14286 -0.008,0.049 -0.0123,0.0996 -0.0159,0.15136 -0.003,0.0518 -0.005,0.10499 -0.005,0.1593 -8e-5,0.0452 0.002,0.0909 0.004,0.13776 0.001,0.0241 0.003,0.0486 0.005,0.0731 0.002,0.0275 0.005,0.0554 0.007,0.0833 0.002,0.0274 0.005,0.0549 0.009,0.0828 0.005,0.0466 0.0117,0.0939 0.0193,0.14173 0,0 0,5.8e-4 0,5.8e-4 0.01,0.0608 0.0204,0.1223 0.0329,0.18481 0.0125,0.0625 0.0267,0.12586 0.042,0.18991 0.0153,0.0641 0.032,0.12848 0.0499,0.19388 0.0179,0.0654 0.0369,0.13186 0.0573,0.19842 0.0205,0.0668 0.0424,0.13351 0.0652,0.20125 0.0684,0.20255 0.1466,0.40866 0.23367,0.61622 0.0291,0.0692 0.0593,0.13815 0.0902,0.20749 0,0 0,5.8e-4 0,5.8e-4 0.0307,0.0692 0.0623,0.13834 0.0947,0.20749 0.19494,0.41604 0.41831,0.82966 0.65508,1.21941 0.0747,0.12306 0.15107,0.2435 0.22801,0.36111 h 9.08665 c -0.17402,-2.86414 -1.2584,-5.97176 -1.63459,-6.04829 -0.481,-0.0978 -1.85359,-0.70172 -2.13029,-1.25512 -0.27672,-0.55343 -2.46698,-2.3286 -3.04345,-2.51309 -0.21605,-0.0692 -0.51336,-0.10306 -0.84281,-0.10091 z" /></clipPath><clipPath
       clipPathUnits="userSpaceOnUse"
       id="clipPath70034-5"><path
         id="path70036-8"
         style="fill:#79859b;fill-opacity:1;stroke:#000000;stroke-width:0.529166;stroke-linecap:butt;stroke-linejoin:miter;stroke-miterlimit:4;stroke-dasharray:none;stroke-opacity:1;paint-order:stroke fill markers"
         d="m 548.06012,-228.10683 c -0.54933,0.003 -1.1882,0.1067 -1.69244,0.3084 -0.26465,0.10586 -0.4501,0.51951 -0.57965,1.02723 -0.0947,-0.0219 -0.23207,-0.038 -0.43842,-0.038 -0.30776,0 -0.57267,0.0326 -0.79688,0.1406 -0.16169,0.0792 -0.28449,0.0998 -0.27791,0.30839 0.029,0.0289 0.4997,0.053 0.78326,0.0822 0.22503,0.0233 0.46138,0.12455 0.59383,0.18481 -0.0582,0.36905 -0.0957,0.7397 -0.11967,1.04821 -0.008,0.1006 -0.014,0.19213 -0.0193,0.27721 -0.002,0.0313 -0.003,0.0569 -0.005,0.0856 -0.003,0.0519 -0.006,0.0995 -0.008,0.14229 -0.001,0.0338 -0.002,0.0593 -0.003,0.0867 -10e-4,0.0349 -6.1e-4,0.0402 -0.002,0.0641 -0.002,0.0558 -0.003,0.0952 -0.003,0.0952 0,0 -0.004,0.006 -0.0147,0.0351 -0.005,0.015 -0.0126,0.0359 -0.0221,0.0663 0,0 0,5.8e-4 0,5.8e-4 -0.002,0.007 -0.007,0.0194 -0.009,0.0272 -0.0189,0.0612 -0.0435,0.14677 -0.08,0.28232 -0.0411,0.15289 -0.0951,0.36254 -0.16561,0.64911 -0.0352,0.14329 -0.0745,0.3059 -0.11854,0.49037 -0.011,0.0461 -0.02,0.0938 -0.0272,0.14286 -0.008,0.049 -0.0123,0.0996 -0.0159,0.15136 -0.003,0.0518 -0.005,0.10499 -0.005,0.1593 -8e-5,0.0452 0.002,0.0909 0.004,0.13776 0.001,0.0241 0.003,0.0486 0.005,0.0731 0.002,0.0275 0.005,0.0554 0.007,0.0833 0.002,0.0274 0.005,0.0549 0.009,0.0828 0.005,0.0466 0.0117,0.0939 0.0193,0.14173 0,0 0,5.8e-4 0,5.8e-4 0.01,0.0608 0.0204,0.1223 0.0329,0.18481 0.0125,0.0625 0.0267,0.12586 0.042,0.18991 0.0153,0.0641 0.032,0.12848 0.0499,0.19388 0.0179,0.0654 0.0369,0.13186 0.0573,0.19842 0.0205,0.0668 0.0424,0.13351 0.0652,0.20125 0.0684,0.20255 0.1466,0.40866 0.23367,0.61622 0.0291,0.0692 0.0593,0.13815 0.0902,0.20749 0,0 0,5.8e-4 0,5.8e-4 0.0307,0.0692 0.0623,0.13834 0.0947,0.20749 0.19494,0.41604 0.41831,0.82966 0.65508,1.21941 0.0747,0.12306 0.15107,0.2435 0.22801,0.36111 h 9.08665 c -0.17402,-2.86414 -1.2584,-5.97176 -1.63459,-6.04829 -0.481,-0.0978 -1.85359,-0.70172 -2.13029,-1.25512 -0.27672,-0.55343 -2.46698,-2.3286 -3.04345,-2.51309 -0.21605,-0.0692 -0.51336,-0.10306 -0.84281,-0.10091 z" /></clipPath><clipPath
       clipPathUnits="userSpaceOnUse"
       id="clipPath46021"><rect
         style="fill:#e6e6e6;fill-opacity:1;stroke:none;stroke-width:0.529164;stroke-linecap:square;stroke-linejoin:round;paint-order:stroke fill markers;stop-color:#000000"
         id="rect46023"
         width="95.77916"
         height="59.861977"
         x="1474.7316"
         y="-289.7153" /></clipPath><clipPath
       clipPathUnits="userSpaceOnUse"
       id="clipPath1582"><rect
         style="fill:url(#linearGradient1586);fill-opacity:1;stroke-width:0.407607"
         id="rect1584"
         width="338.66666"
         height="211.66667"
         x="1148.515"
         y="46.946522" /></clipPath><linearGradient
       inkscape:collect="always"
       xlink:href="#linearGradient1179"
       id="linearGradient1586"
       gradientUnits="userSpaceOnUse"
       x1="1154.1417"
       y1="137.87424"
       x2="1474.7041"
       y2="169.00879"
       gradientTransform="translate(8.5416667e-6)" /><clipPath
       clipPathUnits="userSpaceOnUse"
       id="clipPath6070"><rect
         style="opacity:0.470194;fill:#000000;stroke:none;stroke-width:3.45591;stroke-linecap:square;stroke-linejoin:round;stroke-dasharray:none;stroke-opacity:1;paint-order:stroke fill markers"
         id="rect6072"
         width="185.63359"
         height="57.397923"
         x="3061.4553"
         y="48.925018" /></clipPath><clipPath
       clipPathUnits="userSpaceOnUse"
       id="clipPath6080"><rect
         style="opacity:0.470194;fill:#000000;stroke:none;stroke-width:3.45591;stroke-linecap:square;stroke-linejoin:round;stroke-dasharray:none;stroke-opacity:1;paint-order:stroke fill markers"
         id="rect6082"
         width="185.63359"
         height="57.397923"
         x="2865.6606"
         y="48.925018" /></clipPath><clipPath
       clipPathUnits="userSpaceOnUse"
       id="clipPath6101"><rect
         style="opacity:0.470194;fill:#000000;stroke:none;stroke-width:3.43892;stroke-linecap:square;stroke-linejoin:round;stroke-dasharray:none;stroke-opacity:1;paint-order:stroke fill markers"
         id="rect6103"
         width="185.63359"
         height="56.835197"
         x="2770.4092"
         y="49.487728" /></clipPath><clipPath
       clipPathUnits="userSpaceOnUse"
       id="clipPath6260"><rect
         style="opacity:0.470194;fill:#000000;stroke:none;stroke-width:3.59198;stroke-linecap:square;stroke-linejoin:round;stroke-dasharray:none;stroke-opacity:1;paint-order:stroke fill markers"
         id="rect6262"
         width="176.9025"
         height="48.301678"
         x="2719.916"
         y="129.618" /></clipPath><clipPath
       clipPathUnits="userSpaceOnUse"
       id="clipPath6264"><rect
         style="opacity:0.470194;fill:#000000;stroke:none;stroke-width:3.59198;stroke-linecap:square;stroke-linejoin:round;stroke-dasharray:none;stroke-opacity:1;paint-order:stroke fill markers"
         id="rect6266"
         width="176.9025"
         height="48.301678"
         x="2719.916"
         y="129.618" /></clipPath><clipPath
       clipPathUnits="userSpaceOnUse"
       id="clipPath6276"><rect
         style="opacity:0.470194;fill:#000000;stroke:none;stroke-width:3.59198;stroke-linecap:square;stroke-linejoin:round;stroke-dasharray:none;stroke-opacity:1;paint-order:stroke fill markers"
         id="rect6278"
         width="176.9025"
         height="48.301678"
         x="2719.916"
         y="129.618" /></clipPath><clipPath
       clipPathUnits="userSpaceOnUse"
       id="clipPath6330"><path
         id="path6332"
         style="opacity:0.470194;fill:#000000;stroke:none;stroke-width:3.59198;stroke-linecap:square;stroke-linejoin:round;stroke-dasharray:none;stroke-opacity:1;paint-order:stroke fill markers"
         d="m 2791.4035,129.61817 11.6474,48.30144 h 93.7679 v -48.30144 z" /></clipPath><clipPath
       clipPathUnits="userSpaceOnUse"
       id="clipPath6342"><path
         id="path6344"
         style="opacity:0.470194;fill:#000000;stroke:none;stroke-width:3.59198;stroke-linecap:square;stroke-linejoin:round;stroke-dasharray:none;stroke-opacity:1;paint-order:stroke fill markers"
         d="m 2803.0509,129.61793 11.6478,48.30196 h 82.1201 v -48.30196 z" /></clipPath><clipPath
       clipPathUnits="userSpaceOnUse"
       id="clipPath6354"><path
         id="path6356"
         style="opacity:0.470194;fill:#000000;stroke:none;stroke-width:3.59198;stroke-linecap:square;stroke-linejoin:round;stroke-dasharray:none;stroke-opacity:1;paint-order:stroke fill markers"
         d="m 2814.6987,129.61822 11.6479,48.30143 h 70.4722 v -48.30143 z" /></clipPath><clipPath
       clipPathUnits="userSpaceOnUse"
       id="clipPath70034-6"><path
         id="path70036-7"
         style="fill:#79859b;fill-opacity:1;stroke:#000000;stroke-width:0.529166;stroke-linecap:butt;stroke-linejoin:miter;stroke-miterlimit:4;stroke-dasharray:none;stroke-opacity:1;paint-order:stroke fill markers"
         d="m 548.06012,-228.10683 c -0.54933,0.003 -1.1882,0.1067 -1.69244,0.3084 -0.26465,0.10586 -0.4501,0.51951 -0.57965,1.02723 -0.0947,-0.0219 -0.23207,-0.038 -0.43842,-0.038 -0.30776,0 -0.57267,0.0326 -0.79688,0.1406 -0.16169,0.0792 -0.28449,0.0998 -0.27791,0.30839 0.029,0.0289 0.4997,0.053 0.78326,0.0822 0.22503,0.0233 0.46138,0.12455 0.59383,0.18481 -0.0582,0.36905 -0.0957,0.7397 -0.11967,1.04821 -0.008,0.1006 -0.014,0.19213 -0.0193,0.27721 -0.002,0.0313 -0.003,0.0569 -0.005,0.0856 -0.003,0.0519 -0.006,0.0995 -0.008,0.14229 -0.001,0.0338 -0.002,0.0593 -0.003,0.0867 -10e-4,0.0349 -6.1e-4,0.0402 -0.002,0.0641 -0.002,0.0558 -0.003,0.0952 -0.003,0.0952 0,0 -0.004,0.006 -0.0147,0.0351 -0.005,0.015 -0.0126,0.0359 -0.0221,0.0663 0,0 0,5.8e-4 0,5.8e-4 -0.002,0.007 -0.007,0.0194 -0.009,0.0272 -0.0189,0.0612 -0.0435,0.14677 -0.08,0.28232 -0.0411,0.15289 -0.0951,0.36254 -0.16561,0.64911 -0.0352,0.14329 -0.0745,0.3059 -0.11854,0.49037 -0.011,0.0461 -0.02,0.0938 -0.0272,0.14286 -0.008,0.049 -0.0123,0.0996 -0.0159,0.15136 -0.003,0.0518 -0.005,0.10499 -0.005,0.1593 -8e-5,0.0452 0.002,0.0909 0.004,0.13776 0.001,0.0241 0.003,0.0486 0.005,0.0731 0.002,0.0275 0.005,0.0554 0.007,0.0833 0.002,0.0274 0.005,0.0549 0.009,0.0828 0.005,0.0466 0.0117,0.0939 0.0193,0.14173 0,0 0,5.8e-4 0,5.8e-4 0.01,0.0608 0.0204,0.1223 0.0329,0.18481 0.0125,0.0625 0.0267,0.12586 0.042,0.18991 0.0153,0.0641 0.032,0.12848 0.0499,0.19388 0.0179,0.0654 0.0369,0.13186 0.0573,0.19842 0.0205,0.0668 0.0424,0.13351 0.0652,0.20125 0.0684,0.20255 0.1466,0.40866 0.23367,0.61622 0.0291,0.0692 0.0593,0.13815 0.0902,0.20749 0,0 0,5.8e-4 0,5.8e-4 0.0307,0.0692 0.0623,0.13834 0.0947,0.20749 0.19494,0.41604 0.41831,0.82966 0.65508,1.21941 0.0747,0.12306 0.15107,0.2435 0.22801,0.36111 h 9.08665 c -0.17402,-2.86414 -1.2584,-5.97176 -1.63459,-6.04829 -0.481,-0.0978 -1.85359,-0.70172 -2.13029,-1.25512 -0.27672,-0.55343 -2.46698,-2.3286 -3.04345,-2.51309 -0.21605,-0.0692 -0.51336,-0.10306 -0.84281,-0.10091 z" /></clipPath><inkscape:path-effect
       effect="fill_between_many"
       method="bsplinespiro"
       autoreverse="false"
       close="false"
       join="false"
       linkedpaths="#path4,0,1"
       id="path-effect5"
       is_visible="true"
       lpeversion="0" /></defs><g
     inkscape:label="圖層 1"
     inkscape:groupmode="layer"
     id="layer1"
     transform="translate(-776.53241,-16.258314)"><g
       id="g2"
       transform="matrix(0.09901434,0,0,0.09905235,733.77514,25.421367)"><path
         id="path65"
         style="fill:#000000;fill-opacity:1;stroke:#ffffff;stroke-width:18.6058;stroke-linecap:round;stroke-linejoin:round;paint-order:stroke fill markers"
         d="m 450.80943,-83.206061 c -0.33281,1.93e-4 -0.66121,0.01832 -0.9852,0.0511 -0.43112,0.04423 -0.84965,0.127206 -1.26208,0.22602 -0.10665,0.02554 -0.213,0.05162 -0.31825,0.08079 -0.4051,0.111899 -0.80309,0.239505 -1.18494,0.40124 -0.28824,0.12213 -0.5707,0.25845 -0.84384,0.406886 -0.27311,0.148378 -0.53883,0.308756 -0.79497,0.482241 -0.51197,0.345935 -0.98859,0.742069 -1.42409,1.177354 -0.0899,0.08996 -0.17179,0.187367 -0.25825,0.280694 -0.0214,0.02554 -0.0464,0.05127 -0.0702,0.07728 -0.0984,0.108985 -0.20243,0.212511 -0.29573,0.325891 v 0.002 c -0.19618,0.237676 -0.38266,0.484387 -0.55566,0.740328 v 0.002 c -0.17294,0.255899 -0.33392,0.520436 -0.48225,0.793066 -0.24267,0.446262 -0.44157,0.918075 -0.6122,1.403407 -0.036,0.108644 -0.0831,0.213627 -0.1184,0.324075 v 0.002 c -0.18791,0.603007 -0.31822,1.230729 -0.3843,1.878099 v 0.002 c -0.002,0.01471 -3.7e-4,0.03292 -0.002,0.04682 -0.0294,0.308408 -0.05,0.620058 -0.05,0.936223 v 0.002 77.1625738 0.00199 c 3e-4,0.3320867 0.0174,0.6599469 0.0528,0.983318 8e-5,6.218e-4 -6e-5,0.00126 0,0.00206 0.0337,0.3233383 0.0812,0.6419704 0.14695,0.955069 1.4e-4,5.78e-4 -8e-5,0.00143 0,0.00213 0.063,0.3131331 0.14351,0.6218516 0.23735,0.9230587 0.18819,0.6035506 0.43392,1.1811841 0.73096,1.7273959 0.29659,0.5457734 0.64538,1.0596147 1.03795,1.5352921 3.4e-4,3.588e-4 -3.5e-4,0.00188 0,0.00238 0.19615,0.2373031 0.40416,0.4644465 0.62158,0.6819245 0.008,0.0092 0.0134,0.01469 0.0214,0.0218 l 5.13693,5.135097 c 1.74245,1.746105 4.15251,2.823763 6.81362,2.823763 h 77.16258 c 5.32213,0 9.63922,-4.315163 9.64295,-9.6372974 V -68.407228 c -0.008,-2.661074 -1.08318,-5.069226 -2.82566,-6.81168 l -5.15396,-5.155833 c -7.7e-4,-7.69e-4 -0.004,-7.69e-4 -0.004,-0.002 -0.43578,-0.435683 -0.91186,-0.831091 -1.42414,-1.177357 -4.7e-4,-2.94e-4 -0.002,3.25e-4 -0.002,0 -1.02506,-0.69257 -2.19132,-1.193175 -3.44541,-1.450504 -6.5e-4,-1.04e-4 -0.002,1.5e-4 -0.002,0 -0.62681,-0.128321 -1.27564,-0.197221 -1.9403,-0.197931 h -0.002 z" /><path
         id="path54"
         style="fill:#000000;fill-opacity:1;stroke:#4d4d4d;stroke-width:8.67528;stroke-linecap:round;stroke-linejoin:round;paint-order:stroke fill markers"
         d="m 450.80943,-83.206061 c -0.33281,1.93e-4 -0.66121,0.01832 -0.9852,0.0511 -0.43112,0.04423 -0.84965,0.127206 -1.26208,0.22602 -0.10665,0.02554 -0.213,0.05162 -0.31825,0.08079 -0.4051,0.111899 -0.80309,0.239505 -1.18494,0.40124 -0.28824,0.12213 -0.5707,0.25845 -0.84384,0.406886 -0.27311,0.148378 -0.53883,0.308756 -0.79497,0.482241 -0.51197,0.345935 -0.98859,0.742069 -1.42409,1.177354 -0.0899,0.08996 -0.17179,0.187367 -0.25825,0.280694 -0.0214,0.02554 -0.0464,0.05127 -0.0702,0.07728 -0.0984,0.108985 -0.20243,0.212511 -0.29573,0.325891 v 0.002 c -0.19618,0.237676 -0.38266,0.484387 -0.55566,0.740328 v 0.002 c -0.17294,0.255899 -0.33392,0.520436 -0.48225,0.793066 -0.24267,0.446262 -0.44157,0.918075 -0.6122,1.403407 -0.036,0.108644 -0.0831,0.213627 -0.1184,0.324075 v 0.002 c -0.18791,0.603007 -0.31822,1.230729 -0.3843,1.878099 v 0.002 c -0.002,0.01471 -3.7e-4,0.03292 -0.002,0.04682 -0.0294,0.308408 -0.05,0.620058 -0.05,0.936223 v 0.002 77.1625738 0.00199 c 3e-4,0.3320867 0.0174,0.6599469 0.0528,0.983318 8e-5,6.218e-4 -6e-5,0.00126 0,0.00206 0.0337,0.3233383 0.0812,0.6419704 0.14695,0.955069 1.4e-4,5.78e-4 -8e-5,0.00143 0,0.00213 0.063,0.3131331 0.14351,0.6218516 0.23735,0.9230587 0.18819,0.6035506 0.43392,1.1811841 0.73096,1.7273959 0.29659,0.5457734 0.64538,1.0596147 1.03795,1.5352921 3.4e-4,3.588e-4 -3.5e-4,0.00188 0,0.00238 0.19615,0.2373031 0.40416,0.4644465 0.62158,0.6819245 0.008,0.0092 0.0134,0.01469 0.0214,0.0218 l 5.13693,5.135097 c 1.74245,1.746105 4.15251,2.823763 6.81362,2.823763 h 77.16258 c 5.32213,0 9.63922,-4.315163 9.64295,-9.6372974 V -68.407228 c -0.008,-2.661074 -1.08318,-5.069226 -2.82566,-6.81168 l -5.15396,-5.155833 c -7.7e-4,-7.69e-4 -0.004,-7.69e-4 -0.004,-0.002 -0.43578,-0.435683 -0.91186,-0.831091 -1.42414,-1.177357 -4.7e-4,-2.94e-4 -0.002,3.25e-4 -0.002,0 -1.02506,-0.69257 -2.19132,-1.193175 -3.44541,-1.450504 -6.5e-4,-1.04e-4 -0.002,1.5e-4 -0.002,0 -0.62681,-0.128321 -1.27564,-0.197221 -1.9403,-0.197931 h -0.002 z" /><path
         id="path55"
         style="fill:#88aa00;fill-opacity:1;stroke-width:3.64532;stroke-linecap:round;stroke-linejoin:round;paint-order:stroke fill markers"
         d="m 450.80889,-83.206415 c -0.33287,2.15e-4 -0.66128,0.01832 -0.98527,0.05088 -0.97197,0.09915 -1.90051,0.342298 -2.76532,0.708318 -0.28827,0.122116 -0.57078,0.258437 -0.84397,0.406884 -0.54573,0.296719 -1.05958,0.645433 -1.53518,1.037969 -0.23775,0.196106 -0.4661,0.403891 -0.68383,0.62163 -0.11444,0.11446 -0.21921,0.238039 -0.3278,0.357965 -0.0984,0.108635 -0.20238,0.212878 -0.29569,0.325888 -2.7e-4,3.69e-4 3e-4,0.002 0,0.002 -0.19614,0.237674 -0.38075,0.484386 -0.55382,0.740326 -4.7e-4,7.24e-4 -0.002,7.63e-4 -0.002,0.002 -0.34603,0.512122 -0.64359,1.059433 -0.88733,1.635134 -0.0787,0.183002 -0.14074,0.372796 -0.20699,0.561336 -0.0364,0.108641 -0.0831,0.213625 -0.11902,0.324062 -1.8e-4,5.51e-4 1.8e-4,0.002 0,0.002 -0.18782,0.602998 -0.31823,1.230762 -0.38436,1.878128 -8e-5,6.2e-4 1.2e-4,0.002 0,0.002 -0.002,0.01467 -3.6e-4,0.03288 -0.002,0.04682 -0.0294,0.308752 -0.05,0.62138 -0.05,0.938125 V 3.5982844 c 0.004,2.66107 1.08328,5.0692282 2.82573,6.8116796 l 5.1577,5.15584 c 1.74242,1.746091 4.15246,2.823751 6.81353,2.823751 h 77.1626 c 5.32216,0 9.63923,-4.315193 9.64301,-9.6373279 V -68.410974 c -0.004,-2.661076 -1.08325,-5.069227 -2.82567,-6.811678 l -5.15401,-5.155875 c -1.74603,-1.74609 -4.15618,-2.823863 -6.8173,-2.827507 z" /><path
         style="fill:#abc837;fill-opacity:1;stroke-width:3.64532;stroke-linecap:round;stroke-linejoin:round;paint-order:stroke fill markers"
         d="m 450.80986,-83.205333 c -5.32285,0.003 -9.63738,4.316401 -9.64109,9.639222 V 3.5983206 c 0.004,5.3228254 4.31824,9.6366044 9.64109,9.6392284 h 77.16258 c 5.32285,-0.0034 9.6375,-4.316403 9.64109,-9.6392284 V -73.566111 c -0.004,-5.322821 -4.31824,-9.636589 -9.64109,-9.639222 z"
         id="path56" /><path
         id="path57"
         style="fill:#f9f9f9;stroke:#4d4d4d;stroke-width:8.67528;stroke-linecap:round;stroke-linejoin:round;paint-order:stroke fill markers"
         d="m 470.10279,-63.914964 c -5.34321,0 -9.64485,4.301602 -9.64485,9.644838 v 9.644839 h 9.64485 38.57945 9.64486 v -9.644839 c 0,-5.343236 -4.30164,-9.644838 -9.64486,-9.644838 z m -9.64485,38.579391 v 9.644841 c 0,5.343238 4.30164,9.6448732 9.64485,9.6448732 h 38.57945 c 5.34322,0 9.64486,-4.3016352 9.64486,-9.6448732 v -9.644841 h -9.64486 -38.57945 z" /><path
         id="path58"
         style="fill:#cccccc;stroke-width:3.64532;stroke-linecap:round;stroke-linejoin:round;paint-order:stroke fill markers"
         d="m 470.10234,-63.914853 c -1.00187,0 -1.96748,0.150547 -2.87461,0.431381 -1.20955,0.374632 -2.3145,0.980113 -3.26647,1.765092 -0.47601,0.392491 -0.91292,0.829489 -1.30543,1.305452 -0.39249,0.476081 -0.7399,0.990319 -1.03605,1.537152 -4e-4,7.65e-4 -0.002,0.0015 -0.002,0.0024 -0.29569,0.546172 -0.54009,1.125225 -0.72713,1.729289 -0.18749,0.604832 -0.31677,1.235505 -0.38234,1.885643 -0.0336,0.325155 -0.05,0.654951 -0.05,0.988968 v 9.644819 h 5.15395 v -4.490905 c 0,-5.344002 4.30085,-9.644838 9.64493,-9.644838 h 38.58122 c 1.32563,0 2.58877,0.265388 3.73737,0.74597 -1.45636,-3.472762 -4.8813,-5.899947 -8.89505,-5.899947 z m -9.64302,38.579428 v 9.64294 c 0,0.333912 0.0134,0.663994 0.05,0.98901 9e-5,5.82e-4 -5e-5,0.0015 0,0.0023 0.0646,0.649333 0.19529,1.279752 0.38237,1.883778 1.8e-4,5.44e-4 -1.5e-4,0.0014 0,0.0021 0.18691,0.60399 0.43147,1.181221 0.72711,1.727433 3.1e-4,4.75e-4 -1.9e-4,0.0012 0,0.0019 0.14755,0.273042 0.30999,0.536953 0.48226,0.793069 0.12924,0.19174 0.27184,0.3741183 0.41446,0.5557285 0.0484,0.061236 0.0898,0.1264932 0.13914,0.1866249 5.8e-4,6.573e-4 0.002,0.00114 0.002,0.00174 0.19589,0.237303 0.40261,0.4661969 0.61972,0.6838208 l 0.002,0.00174 c 0.87626,0.8762207 1.92186,1.5813674 3.08376,2.0683777 -0.48212,-1.1500927 -0.74785,-2.4142434 -0.74785,-3.7430279 v -9.645083 h 9.64483 38.58129 4.48713 v -5.152082 h -9.64517 -38.57941 z"
         sodipodi:nodetypes="ssssscsssccssscsscsscscscssscsscscccccccccc" /><path
         id="path64"
         style="fill:#4d4d4d;stroke-width:3.64532;stroke-linecap:round;stroke-linejoin:round;paint-order:stroke fill markers"
         d="m 470.10414,-68.254034 c -7.67131,0 -13.9832,6.311761 -13.9832,13.983143 v 9.646731 a 4.3382138,4.3382138 0 0 0 4.33643,4.336411 h 9.64677 38.57562 9.64671 a 4.3382138,4.3382138 0 0 0 4.33643,-4.336411 v -9.646731 c 0,-7.671346 -6.31183,-13.983143 -13.98314,-13.983143 z m -0.002,4.338307 h 38.57944 c 5.34325,0 9.64484,4.30159 9.64484,9.644836 v 9.644841 h -9.64475 -38.57945 -9.64479 v -9.644841 c 0,-5.343246 4.30162,-9.644836 9.64479,-9.644836 z m -9.64478,34.242979 a 4.3382138,4.3382138 0 0 0 -4.33644,4.336412 v 9.646735 c 0,7.6713452 6.31187,13.9831426 13.9832,13.9831426 h 38.57562 c 7.67134,0 13.98314,-6.3117974 13.98314,-13.9831426 v -9.646735 a 4.3382138,4.3382138 0 0 0 -4.33644,-4.336412 h -9.64665 -38.57561 z m 0,4.336412 h 9.6448 38.57944 9.64484 v 9.644838 c 0,5.343239 -4.30159,9.6448732 -9.64484,9.6448732 h -38.57942 c -5.34319,0 -9.64481,-4.3016342 -9.64481,-9.6448732 z" /></g></g></svg>
