<?xml version="1.0" encoding="UTF-8" standalone="no"?>
<!-- Created with Inkscape (http://www.inkscape.org/) -->

<svg
   width="11.718093mm"
   height="11.717789mm"
   viewBox="0 0 11.718093 11.717789"
   version="1.1"
   id="svg5"
   inkscape:version="1.2 (dc2aedaf03, 2022-05-15)"
   sodipodi:docname="logo.svg"
   xmlns:inkscape="http://www.inkscape.org/namespaces/inkscape"
   xmlns:sodipodi="http://sodipodi.sourceforge.net/DTD/sodipodi-0.dtd"
   xmlns:xlink="http://www.w3.org/1999/xlink"
   xmlns="http://www.w3.org/2000/svg"
   xmlns:svg="http://www.w3.org/2000/svg">
  <sodipodi:namedview
     id="namedview7"
     pagecolor="#ffffff"
     bordercolor="#666666"
     borderopacity="1.0"
     inkscape:pageshadow="2"
     inkscape:pageopacity="0.0"
     inkscape:pagecheckerboard="0"
     inkscape:document-units="px"
     showgrid="false"
     showborder="true"
     inkscape:zoom="5.6568543"
     inkscape:cx="0.35355339"
     inkscape:cy="11.313708"
     inkscape:window-width="1920"
     inkscape:window-height="1009"
     inkscape:window-x="-8"
     inkscape:window-y="-8"
     inkscape:window-maximized="1"
     inkscape:current-layer="layer1"
     inkscape:showpageshadow="0"
     inkscape:deskcolor="#d1d1d1" />
  <defs
     id="defs2">
    <clipPath
       clipPathUnits="userSpaceOnUse"
       id="clipPath70034">
      <path
         id="path70036"
         style="fill:#79859b;fill-opacity:1;stroke:#000000;stroke-width:0.529166;stroke-linecap:butt;stroke-linejoin:miter;stroke-miterlimit:4;stroke-dasharray:none;stroke-opacity:1;paint-order:stroke fill markers"
         d="m 548.06012,-228.10683 c -0.54933,0.003 -1.1882,0.1067 -1.69244,0.3084 -0.26465,0.10586 -0.4501,0.51951 -0.57965,1.02723 -0.0947,-0.0219 -0.23207,-0.038 -0.43842,-0.038 -0.30776,0 -0.57267,0.0326 -0.79688,0.1406 -0.16169,0.0792 -0.28449,0.0998 -0.27791,0.30839 0.029,0.0289 0.4997,0.053 0.78326,0.0822 0.22503,0.0233 0.46138,0.12455 0.59383,0.18481 -0.0582,0.36905 -0.0957,0.7397 -0.11967,1.04821 -0.008,0.1006 -0.014,0.19213 -0.0193,0.27721 -0.002,0.0313 -0.003,0.0569 -0.005,0.0856 -0.003,0.0519 -0.006,0.0995 -0.008,0.14229 -0.001,0.0338 -0.002,0.0593 -0.003,0.0867 -10e-4,0.0349 -6.1e-4,0.0402 -0.002,0.0641 -0.002,0.0558 -0.003,0.0952 -0.003,0.0952 0,0 -0.004,0.006 -0.0147,0.0351 -0.005,0.015 -0.0126,0.0359 -0.0221,0.0663 0,0 0,5.8e-4 0,5.8e-4 -0.002,0.007 -0.007,0.0194 -0.009,0.0272 -0.0189,0.0612 -0.0435,0.14677 -0.08,0.28232 -0.0411,0.15289 -0.0951,0.36254 -0.16561,0.64911 -0.0352,0.14329 -0.0745,0.3059 -0.11854,0.49037 -0.011,0.0461 -0.02,0.0938 -0.0272,0.14286 -0.008,0.049 -0.0123,0.0996 -0.0159,0.15136 -0.003,0.0518 -0.005,0.10499 -0.005,0.1593 -8e-5,0.0452 0.002,0.0909 0.004,0.13776 0.001,0.0241 0.003,0.0486 0.005,0.0731 0.002,0.0275 0.005,0.0554 0.007,0.0833 0.002,0.0274 0.005,0.0549 0.009,0.0828 0.005,0.0466 0.0117,0.0939 0.0193,0.14173 0,0 0,5.8e-4 0,5.8e-4 0.01,0.0608 0.0204,0.1223 0.0329,0.18481 0.0125,0.0625 0.0267,0.12586 0.042,0.18991 0.0153,0.0641 0.032,0.12848 0.0499,0.19388 0.0179,0.0654 0.0369,0.13186 0.0573,0.19842 0.0205,0.0668 0.0424,0.13351 0.0652,0.20125 0.0684,0.20255 0.1466,0.40866 0.23367,0.61622 0.0291,0.0692 0.0593,0.13815 0.0902,0.20749 0,0 0,5.8e-4 0,5.8e-4 0.0307,0.0692 0.0623,0.13834 0.0947,0.20749 0.19494,0.41604 0.41831,0.82966 0.65508,1.21941 0.0747,0.12306 0.15107,0.2435 0.22801,0.36111 h 9.08665 c -0.17402,-2.86414 -1.2584,-5.97176 -1.63459,-6.04829 -0.481,-0.0978 -1.85359,-0.70172 -2.13029,-1.25512 -0.27672,-0.55343 -2.46698,-2.3286 -3.04345,-2.51309 -0.21605,-0.0692 -0.51336,-0.10306 -0.84281,-0.10091 z" />
    </clipPath>
    <clipPath
       clipPathUnits="userSpaceOnUse"
       id="clipPath70034-5">
      <path
         id="path70036-8"
         style="fill:#79859b;fill-opacity:1;stroke:#000000;stroke-width:0.529166;stroke-linecap:butt;stroke-linejoin:miter;stroke-miterlimit:4;stroke-dasharray:none;stroke-opacity:1;paint-order:stroke fill markers"
         d="m 548.06012,-228.10683 c -0.54933,0.003 -1.1882,0.1067 -1.69244,0.3084 -0.26465,0.10586 -0.4501,0.51951 -0.57965,1.02723 -0.0947,-0.0219 -0.23207,-0.038 -0.43842,-0.038 -0.30776,0 -0.57267,0.0326 -0.79688,0.1406 -0.16169,0.0792 -0.28449,0.0998 -0.27791,0.30839 0.029,0.0289 0.4997,0.053 0.78326,0.0822 0.22503,0.0233 0.46138,0.12455 0.59383,0.18481 -0.0582,0.36905 -0.0957,0.7397 -0.11967,1.04821 -0.008,0.1006 -0.014,0.19213 -0.0193,0.27721 -0.002,0.0313 -0.003,0.0569 -0.005,0.0856 -0.003,0.0519 -0.006,0.0995 -0.008,0.14229 -0.001,0.0338 -0.002,0.0593 -0.003,0.0867 -10e-4,0.0349 -6.1e-4,0.0402 -0.002,0.0641 -0.002,0.0558 -0.003,0.0952 -0.003,0.0952 0,0 -0.004,0.006 -0.0147,0.0351 -0.005,0.015 -0.0126,0.0359 -0.0221,0.0663 0,0 0,5.8e-4 0,5.8e-4 -0.002,0.007 -0.007,0.0194 -0.009,0.0272 -0.0189,0.0612 -0.0435,0.14677 -0.08,0.28232 -0.0411,0.15289 -0.0951,0.36254 -0.16561,0.64911 -0.0352,0.14329 -0.0745,0.3059 -0.11854,0.49037 -0.011,0.0461 -0.02,0.0938 -0.0272,0.14286 -0.008,0.049 -0.0123,0.0996 -0.0159,0.15136 -0.003,0.0518 -0.005,0.10499 -0.005,0.1593 -8e-5,0.0452 0.002,0.0909 0.004,0.13776 0.001,0.0241 0.003,0.0486 0.005,0.0731 0.002,0.0275 0.005,0.0554 0.007,0.0833 0.002,0.0274 0.005,0.0549 0.009,0.0828 0.005,0.0466 0.0117,0.0939 0.0193,0.14173 0,0 0,5.8e-4 0,5.8e-4 0.01,0.0608 0.0204,0.1223 0.0329,0.18481 0.0125,0.0625 0.0267,0.12586 0.042,0.18991 0.0153,0.0641 0.032,0.12848 0.0499,0.19388 0.0179,0.0654 0.0369,0.13186 0.0573,0.19842 0.0205,0.0668 0.0424,0.13351 0.0652,0.20125 0.0684,0.20255 0.1466,0.40866 0.23367,0.61622 0.0291,0.0692 0.0593,0.13815 0.0902,0.20749 0,0 0,5.8e-4 0,5.8e-4 0.0307,0.0692 0.0623,0.13834 0.0947,0.20749 0.19494,0.41604 0.41831,0.82966 0.65508,1.21941 0.0747,0.12306 0.15107,0.2435 0.22801,0.36111 h 9.08665 c -0.17402,-2.86414 -1.2584,-5.97176 -1.63459,-6.04829 -0.481,-0.0978 -1.85359,-0.70172 -2.13029,-1.25512 -0.27672,-0.55343 -2.46698,-2.3286 -3.04345,-2.51309 -0.21605,-0.0692 -0.51336,-0.10306 -0.84281,-0.10091 z" />
    </clipPath>
    <clipPath
       clipPathUnits="userSpaceOnUse"
       id="clipPath46021">
      <rect
         style="fill:#e6e6e6;fill-opacity:1;stroke:none;stroke-width:0.529164;stroke-linecap:square;stroke-linejoin:round;paint-order:stroke fill markers;stop-color:#000000"
         id="rect46023"
         width="95.77916"
         height="59.861977"
         x="1474.7316"
         y="-289.7153" />
    </clipPath>
    <clipPath
       clipPathUnits="userSpaceOnUse"
       id="clipPath70034-7">
      <path
         id="path70036-9"
         style="fill:#79859b;fill-opacity:1;stroke:#000000;stroke-width:0.529166;stroke-linecap:butt;stroke-linejoin:miter;stroke-miterlimit:4;stroke-dasharray:none;stroke-opacity:1;paint-order:stroke fill markers"
         d="m 548.06012,-228.10683 c -0.54933,0.003 -1.1882,0.1067 -1.69244,0.3084 -0.26465,0.10586 -0.4501,0.51951 -0.57965,1.02723 -0.0947,-0.0219 -0.23207,-0.038 -0.43842,-0.038 -0.30776,0 -0.57267,0.0326 -0.79688,0.1406 -0.16169,0.0792 -0.28449,0.0998 -0.27791,0.30839 0.029,0.0289 0.4997,0.053 0.78326,0.0822 0.22503,0.0233 0.46138,0.12455 0.59383,0.18481 -0.0582,0.36905 -0.0957,0.7397 -0.11967,1.04821 -0.008,0.1006 -0.014,0.19213 -0.0193,0.27721 -0.002,0.0313 -0.003,0.0569 -0.005,0.0856 -0.003,0.0519 -0.006,0.0995 -0.008,0.14229 -0.001,0.0338 -0.002,0.0593 -0.003,0.0867 -10e-4,0.0349 -6.1e-4,0.0402 -0.002,0.0641 -0.002,0.0558 -0.003,0.0952 -0.003,0.0952 0,0 -0.004,0.006 -0.0147,0.0351 -0.005,0.015 -0.0126,0.0359 -0.0221,0.0663 0,0 0,5.8e-4 0,5.8e-4 -0.002,0.007 -0.007,0.0194 -0.009,0.0272 -0.0189,0.0612 -0.0435,0.14677 -0.08,0.28232 -0.0411,0.15289 -0.0951,0.36254 -0.16561,0.64911 -0.0352,0.14329 -0.0745,0.3059 -0.11854,0.49037 -0.011,0.0461 -0.02,0.0938 -0.0272,0.14286 -0.008,0.049 -0.0123,0.0996 -0.0159,0.15136 -0.003,0.0518 -0.005,0.10499 -0.005,0.1593 -8e-5,0.0452 0.002,0.0909 0.004,0.13776 0.001,0.0241 0.003,0.0486 0.005,0.0731 0.002,0.0275 0.005,0.0554 0.007,0.0833 0.002,0.0274 0.005,0.0549 0.009,0.0828 0.005,0.0466 0.0117,0.0939 0.0193,0.14173 0,0 0,5.8e-4 0,5.8e-4 0.01,0.0608 0.0204,0.1223 0.0329,0.18481 0.0125,0.0625 0.0267,0.12586 0.042,0.18991 0.0153,0.0641 0.032,0.12848 0.0499,0.19388 0.0179,0.0654 0.0369,0.13186 0.0573,0.19842 0.0205,0.0668 0.0424,0.13351 0.0652,0.20125 0.0684,0.20255 0.1466,0.40866 0.23367,0.61622 0.0291,0.0692 0.0593,0.13815 0.0902,0.20749 0,0 0,5.8e-4 0,5.8e-4 0.0307,0.0692 0.0623,0.13834 0.0947,0.20749 0.19494,0.41604 0.41831,0.82966 0.65508,1.21941 0.0747,0.12306 0.15107,0.2435 0.22801,0.36111 h 9.08665 c -0.17402,-2.86414 -1.2584,-5.97176 -1.63459,-6.04829 -0.481,-0.0978 -1.85359,-0.70172 -2.13029,-1.25512 -0.27672,-0.55343 -2.46698,-2.3286 -3.04345,-2.51309 -0.21605,-0.0692 -0.51336,-0.10306 -0.84281,-0.10091 z" />
    </clipPath>
    <linearGradient
       inkscape:collect="always"
       xlink:href="#linearGradient49917"
       id="linearGradient70410"
       gradientUnits="userSpaceOnUse"
       gradientTransform="matrix(0.26458333,0,0,0.26458333,542.42423,-230.75029)"
       x1="14.849242"
       y1="41.542522"
       x2="16.336679"
       y2="21.089506" />
    <linearGradient
       inkscape:collect="always"
       id="linearGradient49917">
      <stop
         style="stop-color:#f1d9c9;stop-opacity:1;"
         offset="0"
         id="stop49913" />
      <stop
         style="stop-color:#c6977a;stop-opacity:1"
         offset="0.74898916"
         id="stop50083" />
      <stop
         style="stop-color:#c28969;stop-opacity:1"
         offset="0.85515803"
         id="stop54538" />
      <stop
         style="stop-color:#f1d9c9;stop-opacity:0;"
         offset="1"
         id="stop49915" />
    </linearGradient>
    <linearGradient
       inkscape:collect="always"
       xlink:href="#linearGradient60783"
       id="linearGradient70412"
       gradientUnits="userSpaceOnUse"
       gradientTransform="translate(-0.66145834,-0.52916666)"
       x1="550.47571"
       y1="-222.64403"
       x2="552.58044"
       y2="-213.57022" />
    <linearGradient
       inkscape:collect="always"
       id="linearGradient60783">
      <stop
         style="stop-color:#566373;stop-opacity:1"
         offset="0"
         id="stop60779" />
      <stop
         style="stop-color:#5d5d62;stop-opacity:1"
         offset="1"
         id="stop60781" />
    </linearGradient>
  </defs>
  <g
     inkscape:label="圖層 1"
     inkscape:groupmode="layer"
     id="layer1"
     transform="translate(-542.9718,232.15115)">
    <rect
       style="fill:none;stroke:none;stroke-width:3.74245;stroke-linecap:round;stroke-linejoin:round;paint-order:stroke markers fill;stop-color:#000000"
       id="rect70384"
       width="11.717784"
       height="11.717784"
       x="542.97211"
       y="-232.15115"
       inkscape:export-filename="C:\Users\Asus\Desktop\icon-128.png"
       inkscape:export-xdpi="277.45856"
       inkscape:export-ydpi="277.45856" />
    <g
       id="g70400"
       transform="translate(-0.60473333,-2.6856383)"
       inkscape:export-filename="C:\Users\Asus\Desktop\icon-128.png"
       inkscape:export-xdpi="277.45856"
       inkscape:export-ydpi="277.45856">
      <path
         id="path70386"
         style="fill:#79859b;fill-opacity:1;stroke:#000000;stroke-width:0.529166;stroke-linecap:butt;stroke-linejoin:miter;stroke-miterlimit:4;stroke-dasharray:none;stroke-opacity:1;paint-order:stroke fill markers"
         d="m 547.29008,-227.05232 c -0.50051,0.003 -1.0826,0.0973 -1.54202,0.28112 -0.24113,0.0965 -0.4101,0.47356 -0.52814,0.93638 -0.0863,-0.02 -0.21144,-0.0346 -0.39945,-0.0346 -0.28041,0 -0.52178,0.0297 -0.72606,0.12816 -0.14732,0.0722 -0.25921,0.091 -0.25321,0.28112 0.0264,0.0263 0.45529,0.0483 0.71365,0.0749 0.20503,0.0212 0.42037,0.11353 0.54105,0.16846 -0.053,0.33641 -0.0872,0.67428 -0.10903,0.95551 -0.007,0.0917 -0.0128,0.17513 -0.0176,0.25269 -0.002,0.0285 -0.003,0.0519 -0.005,0.078 -0.003,0.0473 -0.005,0.0907 -0.007,0.1297 -9.1e-4,0.0308 -0.002,0.0541 -0.003,0.079 -9.1e-4,0.0318 -5.5e-4,0.0367 -0.002,0.0584 -0.002,0.0509 -0.003,0.0868 -0.003,0.0868 0,0 -0.004,0.005 -0.0134,0.032 -0.005,0.0137 -0.0115,0.0327 -0.0201,0.0604 0,0 0,5.3e-4 0,5.3e-4 -0.002,0.006 -0.006,0.0177 -0.008,0.0248 -0.0172,0.0558 -0.0396,0.13379 -0.0729,0.25735 -0.0374,0.13937 -0.0866,0.33048 -0.15089,0.5917 -0.0321,0.13062 -0.0679,0.27885 -0.10801,0.447 -0.01,0.042 -0.0182,0.0855 -0.0248,0.13022 -0.007,0.0447 -0.0112,0.0908 -0.0145,0.13798 -0.003,0.0472 -0.005,0.0957 -0.005,0.14521 -8e-5,0.0412 0.002,0.0829 0.004,0.12557 9.1e-4,0.022 0.003,0.0443 0.005,0.0666 0.002,0.0251 0.005,0.0505 0.006,0.0759 0.002,0.025 0.005,0.05 0.008,0.0755 0.005,0.0425 0.0107,0.0856 0.0176,0.12919 0,0 0,5.3e-4 0,5.3e-4 0.009,0.0554 0.0186,0.11149 0.03,0.16847 0.0114,0.057 0.0243,0.11473 0.0383,0.17311 0.0139,0.0584 0.0292,0.11712 0.0455,0.17673 0.0163,0.0596 0.0336,0.1202 0.0522,0.18087 0.0187,0.0609 0.0386,0.12171 0.0594,0.18345 0.0623,0.18464 0.13357,0.37252 0.2129,0.56172 0.0265,0.0631 0.054,0.12593 0.0822,0.18914 0,0 0,5.3e-4 0,5.3e-4 0.028,0.0631 0.0568,0.12611 0.0863,0.18914 0.17762,0.37924 0.38113,0.75628 0.59686,1.11156 0.0681,0.11218 0.13765,0.22196 0.20775,0.32917 h 8.27908 c -0.15856,-2.61082 -1.14656,-5.44359 -1.48932,-5.51335 -0.43825,-0.0891 -1.68885,-0.63966 -1.94096,-1.14411 -0.25213,-0.50449 -2.24773,-2.12265 -2.77297,-2.29083 -0.19685,-0.0631 -0.46773,-0.0939 -0.7679,-0.092 z" />
      <g
         id="g70398"
         transform="matrix(0.91112578,0,0,0.91155592,47.938379,-19.120192)"
         style="stroke-width:1.09728"
         clip-path="url(#clipPath70034-7)">
        <path
           style="fill:#79859b;fill-opacity:1;stroke:#000000;stroke-width:0.290323;stroke-linecap:butt;stroke-linejoin:miter;stroke-miterlimit:4;stroke-dasharray:none;stroke-opacity:1;paint-order:stroke fill markers"
           d="m 545.49107,-224.29377 c 0,0 0.0692,-3.18214 0.87625,-3.50497 0.80706,-0.32282 1.96001,-0.392 2.53649,-0.20753 0.57647,0.18448 2.76708,1.96002 3.04379,2.51344 0.2767,0.55341 1.64915,1.15695 2.13015,1.25478 0.48101,0.0978 2.11968,5.15244 1.53269,8.31564 -0.58699,3.16321 -0.75004,3.1306 -0.75004,3.1306 0,0 -5.96769,-2.77188 -7.2395,-4.10891 -1.2718,-1.33702 -2.89077,-4.36655 -2.53912,-5.84233 0.35165,-1.47577 0.40929,-1.55072 0.40929,-1.55072 z"
           id="path70388" />
        <circle
           style="fill:#261507;fill-opacity:1;stroke:#eeffaa;stroke-width:0.204856;stroke-linecap:square;stroke-linejoin:round;paint-order:stroke fill markers;stop-color:#000000"
           id="circle70390"
           cx="547.95837"
           cy="-226.46555"
           r="0.42362192" />
        <path
           style="fill:#555b6b;fill-opacity:1;stroke:#000000;stroke-width:0.290323;stroke-linecap:butt;stroke-linejoin:miter;stroke-miterlimit:4;stroke-dasharray:none;stroke-opacity:1;paint-order:stroke fill markers"
           d="m 544.55252,-226.669 c 0.2242,-0.10802 0.48916,-0.14063 0.79692,-0.14063 0.30776,0 0.46266,0.0367 0.5503,0.0734 0.0876,0.0367 0.27922,0.27311 0.2833,0.43209 0.004,0.15897 0,0.33018 -0.0978,0.38724 -0.0978,0.0571 -0.11854,0.0651 -0.11854,0.0651 0,0 -0.14572,-0.16633 -0.23342,-0.20433 -0.0877,-0.038 -0.39172,-0.19293 -0.67527,-0.22217 -0.28356,-0.0292 -0.75426,-0.0531 -0.7832,-0.082 -0.007,-0.20852 0.11602,-0.22949 0.27771,-0.3087 z"
           id="path70392"
           sodipodi:nodetypes="csccccsccc" />
        <path
           id="path70394"
           style="fill:url(#linearGradient70410);fill-opacity:1;stroke:none;stroke-width:0.290323px;stroke-linecap:butt;stroke-linejoin:miter;stroke-opacity:1"
           d="m 545.53205,-225.04521 c -0.0341,0.43896 -0.0408,0.75137 -0.0408,0.75137 0,0 -0.0576,0.075 -0.40928,1.55081 -0.35165,1.47578 1.26706,4.50552 2.53886,5.84254 0.49302,0.5183 1.69237,1.25147 2.97553,1.95595 0.26192,-2.40878 -2.94553,-4.29268 -3.60805,-6.61148 -0.32841,-1.14945 0.14309,-1.49112 1.21235,-2.02576 0.27217,-0.13609 1.34115,-1.15752 1.00354,-1.21539 -1.18861,-0.2037 -2.24515,-0.92052 -3.67213,-0.24804 z"
           sodipodi:nodetypes="cccscccsc" />
        <path
           style="fill:url(#linearGradient70412);fill-opacity:1;stroke:none;stroke-width:0.290323px;stroke-linecap:butt;stroke-linejoin:miter;stroke-opacity:1;paint-order:stroke fill markers"
           d="m 550.56259,-224.10864 c -5.3845,-1.14057 -4.54224,4.18797 -2.10475,7.20291 0.78037,0.96524 5.58621,4.25117 6.27663,5.2868 0.7246,-4.07486 0.98258,-9.17073 -4.17188,-12.48971 z"
           id="path70396"
           sodipodi:nodetypes="cscc" />
      </g>
    </g>
    <g
       id="g70404"
       transform="matrix(0.0092017,0,0,0.0092017,548.01856,-232.07036)"
       style="fill:#ffffff;stroke:#000000;stroke-width:57.5075;stroke-miterlimit:4;stroke-dasharray:none;paint-order:stroke fill markers"
       inkscape:export-filename="C:\Users\Asus\Desktop\icon-128.png"
       inkscape:export-xdpi="277.45856"
       inkscape:export-ydpi="277.45856">
      <path
         class="st0"
         d="m 286.7,780 c -4.9,0.1 -6.1,-2.7 -2.8,-4.6 7.9,-4.6 25.4,-18.8 32.3,-32.2 12.1,-23.3 13.4,-44.1 -25.3,-47.9 C 177.5,684.2 54.1,578.6 24.5,422.7 -13.9,220.8 115.4,22.5 351.1,20 633.5,17.1 731.7,245.9 685.1,439.9 631.5,662.7 404.5,778.2 286.7,780 Z"
         id="path70402"
         style="fill:#ffffff;stroke:#000000;stroke-width:57.5075;stroke-miterlimit:4;stroke-dasharray:none;paint-order:stroke fill markers" />
    </g>
    <text
       xml:space="preserve"
       style="font-size:4.23333px;line-height:0;font-family:'STIX Math';-inkscape-font-specification:'STIX Math';letter-spacing:0px;word-spacing:0px;fill:#4d4d4d;stroke-width:0.264583"
       x="549.13092"
       y="-227.21231"
       id="text70408"
       inkscape:export-filename="C:\Users\Asus\Desktop\icon-128.png"
       inkscape:export-xdpi="277.45856"
       inkscape:export-ydpi="277.45856"><tspan
         sodipodi:role="line"
         id="tspan70406"
         style="font-style:normal;font-variant:normal;font-weight:500;font-stretch:normal;font-family:'Mplus 1p';-inkscape-font-specification:'Mplus 1p Medium';fill:#4d4d4d;stroke-width:0.264583"
         x="549.13092"
         y="-227.21231">グ</tspan></text>
  </g>
</svg>
