<?xml version="1.0" encoding="UTF-8" standalone="no"?>
<!-- Created with Inkscape (http://www.inkscape.org/) -->

<svg
   width="210mm"
   height="297mm"
   viewBox="0 0 210 297"
   version="1.1"
   id="svg1"
   inkscape:version="1.4 (86a8ad7, 2024-10-11)"
   sodipodi:docname="icon_2.svg"
   xmlns:inkscape="http://www.inkscape.org/namespaces/inkscape"
   xmlns:sodipodi="http://sodipodi.sourceforge.net/DTD/sodipodi-0.dtd"
   xmlns="http://www.w3.org/2000/svg"
   xmlns:svg="http://www.w3.org/2000/svg">
  <sodipodi:namedview
     id="namedview1"
     pagecolor="#ffffff"
     bordercolor="#000000"
     borderopacity="0.25"
     inkscape:showpageshadow="2"
     inkscape:pageopacity="0.0"
     inkscape:pagecheckerboard="0"
     inkscape:deskcolor="#d1d1d1"
     inkscape:document-units="mm"
     inkscape:zoom="1.314643"
     inkscape:cx="1799.3478"
     inkscape:cy="767.12841"
     inkscape:window-width="1920"
     inkscape:window-height="1009"
     inkscape:window-x="-8"
     inkscape:window-y="444"
     inkscape:window-maximized="1"
     inkscape:current-layer="layer1" />
  <defs
     id="defs1" />
  <g
     inkscape:label="Layer 1"
     inkscape:groupmode="layer"
     id="layer1">
    <path
       id="path117"
       style="fill:#000000;fill-opacity:1;stroke-linecap:round;stroke-linejoin:round;paint-order:stroke fill markers;stroke:#000000;stroke-width:1.06599029"
       d="M 445.28031 175.03479 C 445.18905 175.03484 445.09893 175.03968 445.01005 175.04875 C 444.89177 175.06081 444.77696 175.08364 444.66381 175.11076 C 444.63446 175.11779 444.60544 175.12498 444.57648 175.13298 C 444.46536 175.16368 444.35618 175.19872 444.25144 175.24305 C 444.17236 175.27651 444.09485 175.31396 444.01993 175.35467 C 443.94507 175.39537 443.87212 175.43941 443.80185 175.48696 C 443.66142 175.58188 443.53065 175.69053 443.41118 175.80994 C 443.38649 175.83462 443.36409 175.8613 443.34038 175.88694 C 443.33406 175.89405 443.32765 175.90107 443.32126 175.90813 C 443.29422 175.938 443.2658 175.96644 443.24013 175.99753 L 443.24013 175.99804 C 443.18633 176.06323 443.13514 176.13092 443.08768 176.20113 L 443.08768 176.20165 C 443.04024 176.27186 442.99605 176.34442 442.95539 176.41921 C 442.88884 176.54163 442.83427 176.67106 442.78744 176.8042 C 442.77696 176.83402 442.76433 176.86278 442.75489 176.89308 L 442.75489 176.8936 C 442.70339 177.05902 442.66761 177.23122 442.64947 177.40881 L 442.64947 177.40933 C 442.64904 177.41333 442.64937 177.41835 442.64895 177.42225 C 442.64074 177.50683 442.63557 177.59235 442.63551 177.67908 L 442.63551 177.67959 L 442.63551 198.84729 L 442.63551 198.84781 C 442.63559 198.93889 442.6404 199.02885 442.64947 199.11756 C 442.64948 199.11773 442.64945 199.11791 442.64947 199.11808 C 442.65855 199.20678 442.67215 199.29419 442.68977 199.38008 C 442.68981 199.38024 442.68974 199.38043 442.68977 199.38059 C 442.70741 199.46648 442.72915 199.55118 442.75489 199.63381 C 442.80647 199.79938 442.87393 199.95784 442.95539 200.10768 C 443.03678 200.2574 443.13244 200.39836 443.24013 200.52885 C 443.24022 200.52895 443.24004 200.52926 443.24013 200.52936 C 443.2939 200.59449 443.351 200.65677 443.41066 200.71643 C 443.41256 200.71833 443.41444 200.72022 443.41635 200.72212 L 444.82556 202.13081 C 445.30356 202.60981 445.9647 202.90544 446.6947 202.90544 L 467.8624 202.90544 C 469.3224 202.90544 470.50671 201.72168 470.50771 200.26168 L 470.50771 179.09346 C 470.50671 178.36346 470.21057 177.70284 469.73257 177.22484 L 468.3187 175.81046 C 468.31844 175.8102 468.31793 175.8102 468.31767 175.80994 C 468.19813 175.69042 468.06753 175.58195 467.92699 175.48696 C 467.92687 175.48688 467.9266 175.48705 467.92648 175.48696 C 467.64528 175.29697 467.32535 175.15964 466.98132 175.08905 C 466.98115 175.08902 466.98096 175.08909 466.9808 175.08905 C 466.80885 175.05381 466.63087 175.03492 466.44853 175.03479 L 466.44801 175.03479 L 445.28031 175.03479 z " />
    <path
       id="path107"
       style="fill:#88aa00;fill-opacity:1;stroke-linecap:round;stroke-linejoin:round;paint-order:stroke fill markers"
       d="m 445.28015,175.03469 c -0.0913,6e-5 -0.1814,0.005 -0.27027,0.0139 -0.26664,0.0272 -0.52137,0.0939 -0.75861,0.19431 -0.0791,0.0335 -0.15658,0.0709 -0.23151,0.11162 -0.14971,0.0814 -0.29068,0.17706 -0.42116,0.28474 -0.0652,0.0538 -0.12785,0.1108 -0.18759,0.17053 -0.0314,0.0314 -0.0601,0.0653 -0.0899,0.0982 -0.027,0.0298 -0.0555,0.0584 -0.0811,0.0894 -8e-5,1e-4 8e-5,4.2e-4 0,5.2e-4 -0.0538,0.0652 -0.10447,0.13288 -0.15193,0.20309 -1.3e-4,2e-4 -3.8e-4,3.1e-4 -5.1e-4,5.1e-4 -0.0949,0.14049 -0.17653,0.29063 -0.2434,0.44856 -0.0213,0.0502 -0.0386,0.10227 -0.0568,0.15399 -0.0105,0.0298 -0.0231,0.0586 -0.0326,0.0889 -5e-5,1.5e-4 5e-5,3.6e-4 0,5.1e-4 -0.0515,0.16542 -0.0873,0.33763 -0.10542,0.51522 -2e-5,1.7e-4 2e-5,3.4e-4 0,5.1e-4 -4.3e-4,0.004 -10e-5,0.009 -5.2e-4,0.0129 -0.008,0.0847 -0.0134,0.17046 -0.0134,0.25735 v 21.16822 c 10e-4,0.73 0.29715,1.39062 0.77515,1.86862 l 1.4149,1.41438 c 0.478,0.479 1.13913,0.77463 1.86913,0.77463 h 21.1677 c 1.46,0 2.64432,-1.18377 2.64532,-2.64377 v -21.16821 c -10e-4,-0.73 -0.29715,-1.39062 -0.77515,-1.86862 l -1.41386,-1.41439 c -0.479,-0.479 -1.14017,-0.77466 -1.87017,-0.77566 z" />
    <path
       style="fill:#abc837;fill-opacity:1;stroke-linecap:round;stroke-linejoin:round;paint-order:stroke fill markers"
       d="m 445.28043,175.03499 c -1.46019,7.2e-4 -2.6438,1.1841 -2.6448,2.64429 v 21.16821 c 0.001,1.46019 1.18461,2.64357 2.6448,2.64429 h 21.1677 c 1.46019,-7.2e-4 2.6438,-1.1841 2.6448,-2.64429 v -21.16821 c -0.001,-1.46019 -1.18461,-2.64357 -2.6448,-2.64429 z"
       id="path12" />
    <path
       style="fill:#abc837;stroke-linecap:round;stroke-linejoin:round;paint-order:stroke fill markers;fill-opacity:1"
       d="m 406.28711,106.01943 c -1.46019,7.2e-4 -2.6438,1.1841 -2.6448,2.64429 v 21.16821 c 10e-4,1.46019 1.18461,2.64357 2.6448,2.64429 h 21.1677 c 1.46019,-7.2e-4 2.6438,-1.1841 2.6448,-2.64429 v -21.16821 c -10e-4,-1.46019 -1.18461,-2.64357 -2.6448,-2.64429 z"
       id="path91" />
    <path
       style="fill:none;stroke-width:7.695235;stroke-linecap:round;stroke-linejoin:round;paint-order:stroke fill markers;stroke:#abc837;stroke-dasharray:none"
       d="M 59.620816,133.96282 V 65.509293 h 28.33829 v 27.97026 h -28.33829"
       id="path3" />
    <path
       style="fill:#ff00ff;stroke:#bcd35f;stroke-width:12.1184;stroke-linecap:round;stroke-linejoin:round;paint-order:stroke fill markers"
       d="m 23.399183,15.66167 h 15.90257"
       id="path4"
       sodipodi:nodetypes="cc" />
    <path
       style="fill:#ff00ff;stroke:#bcd35f;stroke-width:12.1184;stroke-linecap:round;stroke-linejoin:round;paint-order:stroke fill markers"
       d="m 23.399183,29.830815 h 15.90257"
       id="path5"
       sodipodi:nodetypes="cc" />
    <rect
       style="fill:#ff00ff;stroke:none;stroke-width:12.4832;stroke-linecap:round;stroke-linejoin:round;paint-order:stroke fill markers"
       id="rect5"
       width="15.902571"
       height="14.169142"
       x="23.399181"
       y="15.661671"
       ry="0" />
    <path
       id="path7"
       style="fill:#bcd35f;stroke-linecap:round;stroke-linejoin:round;paint-order:stroke fill markers"
       d="m 78.591378,0 c -3.34669,-7.44e-4 -6.06027,2.711852 -6.06061,6.058545 v 4.55476 H 100.55232 V 6.058545 C 100.55198,2.712614 97.839698,3.35e-4 94.493768,0 Z m -6.06061,15.673978 v 4.554761 c 3.4e-4,3.346693 2.71392,6.059289 6.06061,6.058545 h 15.90239 c 3.34593,-3.35e-4 6.058212,-2.712615 6.058552,-6.058545 v -4.554761 z" />
    <path
       style="fill:#ff0000;fill-opacity:1;stroke:#abc837;stroke-width:7.695235;stroke-linecap:round;stroke-linejoin:round;stroke-dasharray:none;paint-order:stroke fill markers"
       d="m 59.620816,79.494423 28.33829,0"
       id="path14"
       sodipodi:nodetypes="cc" />
    <path
       style="fill:none;stroke:#abc837;stroke-width:7.695235;stroke-linecap:round;stroke-linejoin:round;stroke-dasharray:none;paint-order:stroke fill markers"
       d="M 132.40911,133.96282 V 65.509293 h -28.3383 v 27.97026 h 28.3383"
       id="path15" />
    <path
       style="fill:#ff0000;fill-opacity:1;stroke:#abc837;stroke-width:7.695235;stroke-linecap:round;stroke-linejoin:round;stroke-dasharray:none;paint-order:stroke fill markers"
       d="m 132.40911,79.494423 h -28.3383"
       id="path16"
       sodipodi:nodetypes="cc" />
    <path
       d="m 91.806723,57.384256 v -3.847827 h -3.84731 c 2.12494,1.68e-4 3.84743,1.722884 3.84731,3.847827 z"
       style="fill:#abc837;fill-opacity:1;stroke-linecap:round;stroke-linejoin:round;paint-order:stroke fill markers"
       id="path24" />
    <path
       style="fill:#abc837;stroke:#abc837;stroke-width:7.69523;stroke-linecap:round;stroke-linejoin:round;stroke-dasharray:none;paint-order:stroke fill markers;fill-opacity:1"
       d="M 250.62825,133.96282 V 65.509293 h 28.33829 v 27.97026 h -28.33829"
       id="path28" />
    <path
       style="fill:#ffffff;fill-opacity:1;stroke:#ffffff;stroke-width:7.69514;stroke-linecap:round;stroke-linejoin:round;stroke-dasharray:none;paint-order:stroke fill markers"
       d="m 257.9894,73.059107 h 13.616"
       id="path26"
       sodipodi:nodetypes="cc" />
    <path
       style="fill:#ffffff;stroke:none;stroke-width:0.999998;stroke-linecap:square;paint-order:stroke fill markers"
       d="m 254.14183,73.05905 v 3.847656 h 21.31113 V 73.05905 Z"
       id="path35"
       sodipodi:nodetypes="ccccc" />
    <path
       style="fill:#ffffff;fill-opacity:1;stroke:#ffffff;stroke-width:7.69514;stroke-linecap:round;stroke-linejoin:round;stroke-dasharray:none;paint-order:stroke fill markers"
       d="m 257.9894,85.759138 h 13.616"
       id="path39"
       sodipodi:nodetypes="cc" />
    <path
       style="fill:#ffffff;stroke:none;stroke-width:0.999998;stroke-linecap:square;paint-order:stroke fill markers"
       d="m 254.14183,85.759195 v -3.847656 h 21.31113 v 3.847656 z"
       id="path40"
       sodipodi:nodetypes="ccccc" />
    <path
       style="fill:#abc837;fill-opacity:1;stroke:#abc837;stroke-width:7.69523;stroke-linecap:round;stroke-linejoin:round;stroke-dasharray:none;paint-order:stroke fill markers"
       d="M 320.23684,133.96282 V 65.509293 h -28.33829 v 27.97026 h 28.33829"
       id="path41" />
    <path
       style="fill:#ffffff;fill-opacity:1;stroke:#ffffff;stroke-width:7.69514;stroke-linecap:round;stroke-linejoin:round;stroke-dasharray:none;paint-order:stroke fill markers"
       d="m 312.87569,73.059107 h -13.616"
       id="path42"
       sodipodi:nodetypes="cc" />
    <path
       style="fill:#ffffff;stroke:none;stroke-width:0.999998;stroke-linecap:square;paint-order:stroke fill markers"
       d="m 316.72326,73.05905 v 3.847656 H 295.41213 V 73.05905 Z"
       id="path43"
       sodipodi:nodetypes="ccccc" />
    <path
       style="fill:#ffffff;fill-opacity:1;stroke:#ffffff;stroke-width:7.69514;stroke-linecap:round;stroke-linejoin:round;stroke-dasharray:none;paint-order:stroke fill markers"
       d="m 312.87569,85.759138 h -13.616"
       id="path44"
       sodipodi:nodetypes="cc" />
    <path
       style="fill:#ffffff;stroke:none;stroke-width:0.999998;stroke-linecap:square;paint-order:stroke fill markers"
       d="m 316.72326,85.759195 v -3.847656 h -21.31113 v 3.847656 z"
       id="path45"
       sodipodi:nodetypes="ccccc" />
    <path
       style="fill:#abc837;fill-opacity:1;stroke:#abc837;stroke-width:7.69523;stroke-linecap:round;stroke-linejoin:round;stroke-dasharray:none;paint-order:stroke fill markers"
       d="M 384.68557,102.21282 V 65.509293 h 28.33829 v 27.97026 h -28.33829"
       id="path59"
       sodipodi:nodetypes="ccccc" />
    <path
       style="fill:#ffffff;fill-opacity:1;stroke:#ffffff;stroke-width:7.69514;stroke-linecap:round;stroke-linejoin:round;stroke-dasharray:none;paint-order:stroke fill markers"
       d="m 392.04672,73.059107 h 13.616"
       id="path60"
       sodipodi:nodetypes="cc" />
    <path
       style="fill:#ffffff;stroke:none;stroke-width:0.999998;stroke-linecap:square;paint-order:stroke fill markers"
       d="m 388.19915,73.05905 v 3.847656 h 21.31113 V 73.05905 Z"
       id="path61"
       sodipodi:nodetypes="ccccc" />
    <path
       style="fill:#ffffff;fill-opacity:1;stroke:#ffffff;stroke-width:7.69514;stroke-linecap:round;stroke-linejoin:round;stroke-dasharray:none;paint-order:stroke fill markers"
       d="m 392.04672,85.759138 h 13.616"
       id="path62"
       sodipodi:nodetypes="cc" />
    <path
       style="fill:#ffffff;stroke:none;stroke-width:0.999998;stroke-linecap:square;paint-order:stroke fill markers"
       d="m 388.19915,85.759195 v -3.847656 h 21.31113 v 3.847656 z"
       id="path63"
       sodipodi:nodetypes="ccccc" />
    <rect
       style="fill:#ffffff;fill-opacity:1;stroke:none;stroke-width:15.875;stroke-linecap:square;stroke-linejoin:miter;stroke-dasharray:none;paint-order:stroke fill markers"
       id="rect67"
       width="15.875"
       height="15.875"
       x="445.88864"
       y="67.986053" />
    <rect
       style="fill:#00ff00;fill-opacity:1;stroke:none;stroke-width:15.875;stroke-linecap:square;stroke-linejoin:miter;stroke-dasharray:none;paint-order:stroke fill markers"
       id="rect69"
       width="15.875"
       height="2.6458321"
       x="445.88864"
       y="78.569389" />
    <rect
       style="fill:#00ff00;fill-opacity:1;stroke:none;stroke-width:15.875;stroke-linecap:square;stroke-linejoin:miter;stroke-dasharray:none;paint-order:stroke fill markers"
       id="rect70"
       width="15.875"
       height="5.2916665"
       x="445.88864"
       y="78.569389"
       rx="2.6458321"
       ry="2.6458321" />
    <path
       id="rect71"
       style="fill:#00ff00;fill-opacity:1;stroke:none;stroke-width:15.875;stroke-linecap:square;stroke-linejoin:miter;stroke-dasharray:none;paint-order:stroke fill markers"
       d="M 448.53438 -67.986031 C 447.06859 -67.986031 445.88855 -69.166073 445.88855 -70.631864 L 445.88855 -73.277698 L 448.53438 -73.277698 L 459.11771 -73.277698 L 461.76355 -73.277698 L 461.76355 -70.631864 C 461.76355 -69.166073 460.5835 -67.986031 459.11771 -67.986031 L 448.53438 -67.986031 z "
       transform="scale(1,-1)" />
    <path
       style="fill:#abc837;fill-opacity:1;stroke:#abc837;stroke-width:7.69523;stroke-linecap:round;stroke-linejoin:round;stroke-dasharray:none;paint-order:stroke fill markers"
       d="M 504.73638,103.87553 V 67.172005 h 28.33829 v 27.97026 h -28.33829"
       id="path79"
       sodipodi:nodetypes="ccccc" />
    <path
       style="fill:#ffffff;fill-opacity:1;stroke:#ffffff;stroke-width:7.69514;stroke-linecap:round;stroke-linejoin:round;stroke-dasharray:none;paint-order:stroke fill markers"
       d="m 512.09753,74.721819 h 13.616"
       id="path80"
       sodipodi:nodetypes="cc" />
    <path
       style="fill:#ffffff;stroke:none;stroke-width:0.999998;stroke-linecap:square;paint-order:stroke fill markers"
       d="m 508.24996,74.721762 v 3.847656 h 21.31113 v -3.847656 z"
       id="path81"
       sodipodi:nodetypes="ccccc" />
    <path
       style="fill:#ffffff;fill-opacity:1;stroke:#ffffff;stroke-width:7.69514;stroke-linecap:round;stroke-linejoin:round;stroke-dasharray:none;paint-order:stroke fill markers"
       d="m 512.09753,87.42185 h 13.616"
       id="path82"
       sodipodi:nodetypes="cc" />
    <path
       style="fill:#ffffff;stroke:none;stroke-width:0.999998;stroke-linecap:square;paint-order:stroke fill markers"
       d="m 508.24996,87.421907 v -3.847656 h 21.31113 v 3.847656 z"
       id="path83"
       sodipodi:nodetypes="ccccc" />
    <rect
       style="fill:none;fill-opacity:1;stroke:#00ff00;stroke-width:5.29166667;stroke-linecap:round;stroke-linejoin:round;stroke-dasharray:none;paint-order:stroke fill markers"
       id="rect84"
       width="21.166666"
       height="21.166666"
       x="443.2428"
       y="65.340218" />
    <rect
       style="fill:#ffffff;fill-opacity:1;stroke:none;stroke-width:15.875;stroke-linecap:square;stroke-linejoin:miter;stroke-dasharray:none;paint-order:stroke fill markers"
       id="rect85"
       width="15.875"
       height="15.875"
       x="445.88864"
       y="124.53975" />
    <path
       d="M 468.91694,96.388234 V 117.5549 h 21.16667 V 96.388234 Z m 5.29167,2.64584 h 10.58333 c 1.46579,0 2.64584,1.180036 2.64584,2.645826 v 2.64583 h -2.64584 -10.58333 -2.64583 v -2.64583 c 0,-1.46579 1.18004,-2.645826 2.64583,-2.645826 z m -2.64583,10.583326 h 2.64583 10.58333 2.64584 v 2.64583 c 0,1.46579 -1.18005,2.64584 -2.64584,2.64584 h -10.58333 c -1.46579,0 -2.64583,-1.18005 -2.64583,-2.64584 z"
       style="fill:#ff5555;stroke:#00ff00;stroke-width:5.29167;stroke-linecap:round;stroke-linejoin:round;paint-order:stroke fill markers"
       id="path89" />
    <path
       style="fill:#f9f9f9;stroke-linecap:round;stroke-linejoin:round;paint-order:stroke fill markers"
       d="m 411.57981,111.31058 c -1.46579,0 -2.64583,1.18005 -2.64583,2.64584 v 2.64583 h 2.64583 10.58333 2.64584 v -2.64583 c 0,-1.46579 -1.18005,-2.64584 -2.64584,-2.64584 z"
       id="path92" />
    <path
       style="fill:#ffffff;stroke-linecap:round;stroke-linejoin:round;paint-order:stroke fill markers"
       d="m 408.93398,121.89392 v 2.64583 c 0,1.46579 1.18004,2.64583 2.64583,2.64583 h 10.58333 c 1.46579,0 2.64584,-1.18004 2.64584,-2.64583 v -2.64583 h -2.64584 -10.58333 z"
       id="path93" />
    <path
       style="fill:#abc837;fill-opacity:1;stroke-linecap:round;stroke-linejoin:round;paint-order:stroke fill markers"
       d="m 406.28711,138.30612 c -1.46019,7.2e-4 -2.6438,1.1841 -2.6448,2.64429 v 21.16821 c 10e-4,1.46019 1.18461,2.64357 2.6448,2.64429 h 21.1677 c 1.46019,-7.2e-4 2.6438,-1.1841 2.6448,-2.64429 v -21.16821 c -10e-4,-1.46019 -1.18461,-2.64357 -2.6448,-2.64429 z"
       id="path94" />
    <g
       id="g96">
      <path
         style="fill:#f9f9f9;stroke-linecap:round;stroke-linejoin:round;paint-order:stroke fill markers"
         d="m 411.57981,143.59727 c -1.46579,0 -2.64583,1.18005 -2.64583,2.64584 v 2.64583 h 2.64583 10.58333 2.64584 v -2.64583 c 0,-1.46579 -1.18005,-2.64584 -2.64584,-2.64584 z"
         id="path95" />
      <path
         style="fill:#ffffff;stroke-linecap:round;stroke-linejoin:round;paint-order:stroke fill markers"
         d="m 408.93398,154.18061 v 2.64583 c 0,1.46579 1.18004,2.64583 2.64583,2.64583 h 10.58333 c 1.46579,0 2.64584,-1.18004 2.64584,-2.64583 v -2.64583 h -2.64584 -10.58333 z"
         id="path96" />
    </g>
    <path
       style="fill:#abc837;fill-opacity:1;stroke-linecap:round;stroke-linejoin:round;paint-order:stroke fill markers"
       d="m 406.28711,170.59281 c -1.46019,7.2e-4 -2.6438,1.1841 -2.6448,2.64429 v 21.16821 c 10e-4,1.46019 1.18461,2.64357 2.6448,2.64429 h 21.1677 c 1.46019,-7.2e-4 2.6438,-1.1841 2.6448,-2.64429 V 173.2371 c -10e-4,-1.46019 -1.18461,-2.64357 -2.6448,-2.64429 z"
       id="path1" />
    <g
       id="g6"
       transform="translate(0,32.28669)">
      <path
         style="fill:#f9f9f9;stroke-linecap:round;stroke-linejoin:round;paint-order:stroke fill markers"
         d="m 411.57981,143.59727 c -1.46579,0 -2.64583,1.18005 -2.64583,2.64584 v 2.64583 h 2.64583 10.58333 2.64584 v -2.64583 c 0,-1.46579 -1.18005,-2.64584 -2.64584,-2.64584 z"
         id="path2" />
      <path
         style="fill:#ffffff;stroke-linecap:round;stroke-linejoin:round;paint-order:stroke fill markers"
         d="m 408.93398,154.18061 v 2.64583 c 0,1.46579 1.18004,2.64583 2.64583,2.64583 h 10.58333 c 1.46579,0 2.64584,-1.18004 2.64584,-2.64583 v -2.64583 h -2.64584 -10.58333 z"
         id="path6" />
    </g>
    <circle
       style="fill:#ffffff;stroke-width:5.29167;stroke-linecap:round;stroke-linejoin:round;paint-order:stroke fill markers"
       id="path8"
       cx="412.81406"
       cy="183.82121"
       r="2.0282538" />
    <circle
       style="fill:#ffffff;stroke-width:5.29167;stroke-linecap:round;stroke-linejoin:round;paint-order:stroke fill markers"
       id="circle8"
       cx="420.92789"
       cy="183.82121"
       r="2.0282538" />
    <path
       style="fill:#5aa02c;fill-opacity:1;stroke-linecap:round;stroke-linejoin:round;paint-order:stroke fill markers"
       d="m 406.28711,240.54554 c -1.46019,7.2e-4 -2.6438,1.1841 -2.6448,2.64429 v 21.16821 c 10e-4,1.46019 1.18461,2.64357 2.6448,2.64429 h 21.1677 c 1.46019,-7.2e-4 2.6438,-1.1841 2.6448,-2.64429 v -21.16821 c -10e-4,-1.46019 -1.18461,-2.64357 -2.6448,-2.64429 z"
       id="path9" />
    <g
       id="g11"
       transform="translate(0,102.23942)">
      <path
         style="fill:#f9f9f9;stroke-linecap:round;stroke-linejoin:round;paint-order:stroke fill markers"
         d="m 411.57981,143.59727 c -1.46579,0 -2.64583,1.18005 -2.64583,2.64584 v 2.64583 h 2.64583 10.58333 2.64584 v -2.64583 c 0,-1.46579 -1.18005,-2.64584 -2.64584,-2.64584 z"
         id="path10" />
      <path
         style="fill:#ffffff;stroke-linecap:round;stroke-linejoin:round;paint-order:stroke fill markers"
         d="m 408.93398,154.18061 v 2.64583 c 0,1.46579 1.18004,2.64583 2.64583,2.64583 h 10.58333 c 1.46579,0 2.64584,-1.18004 2.64584,-2.64583 v -2.64583 h -2.64584 -10.58333 z"
         id="path11" />
    </g>
    <path
       id="path13"
       style="fill:#f9f9f9;stroke-linecap:round;stroke-linejoin:round;paint-order:stroke fill markers;stroke:#000000"
       d="m 450.57299,180.32684 c -1.46579,0 -2.64584,1.18004 -2.64584,2.64583 v 2.64583 h 2.64584 10.58333 2.64583 v -2.64583 c 0,-1.46579 -1.18004,-2.64583 -2.64583,-2.64583 z m -2.64584,10.58333 v 2.64583 c 0,1.46579 1.18005,2.64584 2.64584,2.64584 h 10.58333 c 1.46579,0 2.64583,-1.18005 2.64583,-2.64584 v -2.64583 h -2.64583 -10.58333 z" />
    <path
       id="path75"
       style="fill:#cccccc;stroke-linecap:round;stroke-linejoin:round;paint-order:stroke fill markers"
       d="m 450.57285,180.32687 c -0.27484,0 -0.53973,0.0413 -0.78858,0.11834 -0.3318,0.10277 -0.63493,0.26887 -0.89607,0.48421 -0.13058,0.10767 -0.25045,0.22755 -0.35812,0.35812 -0.10766,0.1306 -0.20296,0.27167 -0.28422,0.42168 -1.1e-4,2.1e-4 -4e-4,3.1e-4 -5.2e-4,5.2e-4 -0.0811,0.14983 -0.14816,0.30868 -0.19947,0.47439 -0.0514,0.16592 -0.0869,0.33893 -0.1049,0.51728 -0.009,0.0892 -0.0134,0.17967 -0.0134,0.2713 v 2.64583 h 1.41387 v -1.23197 c 0,-1.466 1.17983,-2.64583 2.64583,-2.64583 h 10.58385 c 0.36364,0 0.71015,0.0728 1.02526,0.20464 -0.39952,-0.95267 -1.33908,-1.61851 -2.44016,-1.61851 z m -2.64532,10.58334 v 2.64531 c 0,0.0916 0.004,0.18215 0.0134,0.27131 2e-5,1.6e-4 -2e-5,3.4e-4 0,5.1e-4 0.018,0.17813 0.0536,0.35107 0.1049,0.51677 5e-5,1.5e-4 -5e-5,3.5e-4 0,5.1e-4 0.0513,0.16569 0.11835,0.32404 0.19947,0.47388 8e-5,1.3e-4 -7e-5,3.8e-4 0,5.1e-4 0.0405,0.0749 0.085,0.1473 0.13229,0.21756 0.0355,0.0526 0.0746,0.10263 0.11369,0.15245 0.0131,0.0168 0.0247,0.0347 0.0382,0.0512 1.6e-4,1.8e-4 3.7e-4,3.3e-4 5.2e-4,5.1e-4 0.0537,0.0651 0.11044,0.12789 0.17001,0.18759 l 5.2e-4,5.1e-4 c 0.24037,0.24037 0.52721,0.43381 0.84594,0.56741 -0.13225,-0.3155 -0.20515,-0.66229 -0.20515,-1.02681 v -2.64583 h 2.64583 10.58385 1.23094 v -1.41335 h -2.64584 -10.58333 z m 1.61902,5.08599 c 0.0791,0.0331 0.15958,0.0624 0.24237,0.0879 -0.0826,-0.0254 -0.16352,-0.0548 -0.24237,-0.0879 z m 0.24237,0.0879 c 0.24753,0.0762 0.51076,0.11782 0.78393,0.11782 h 10.58333 c 0.27484,0 0.53974,-0.0418 0.78858,-0.11885 -0.24889,0.0771 -0.5137,0.11834 -0.78858,0.11834 h -10.58281 c -0.2734,0 -0.53674,-0.041 -0.78445,-0.11731 z m 12.15584,-0.001 c 0.41488,-0.1285 0.78523,-0.35571 1.08418,-0.65474 -0.29896,0.29888 -0.66935,0.52629 -1.08418,0.65474 z" />
    <path
       id="path118"
       style="fill:#000000;fill-opacity:1;stroke:#4d4d4d;stroke-width:1.06599;stroke-linecap:round;stroke-linejoin:round;paint-order:stroke fill markers"
       d="m 487.94715,175.03479 c -0.0913,5e-5 -0.18138,0.005 -0.27026,0.014 -0.11828,0.0121 -0.23309,0.0349 -0.34624,0.062 -0.0293,0.007 -0.0584,0.0142 -0.0873,0.0222 -0.11112,0.0307 -0.2203,0.0657 -0.32504,0.11007 -0.0791,0.0335 -0.15659,0.0709 -0.23151,0.11162 -0.0749,0.0407 -0.14781,0.0847 -0.21808,0.13229 -0.14043,0.0949 -0.2712,0.20357 -0.39067,0.32298 -0.0247,0.0247 -0.0471,0.0514 -0.0708,0.077 -0.006,0.007 -0.0127,0.0141 -0.0191,0.0212 -0.027,0.0299 -0.0555,0.0583 -0.0811,0.0894 v 5.1e-4 c -0.0538,0.0652 -0.10499,0.13288 -0.15245,0.20309 v 5.2e-4 c -0.0474,0.0702 -0.0916,0.14277 -0.13229,0.21756 -0.0666,0.12242 -0.12112,0.25185 -0.16795,0.38499 -0.0105,0.0298 -0.0231,0.0586 -0.0325,0.0889 v 5.2e-4 c -0.0515,0.16542 -0.0873,0.33762 -0.10542,0.51521 v 5.2e-4 c -4.3e-4,0.004 -10e-5,0.009 -5.2e-4,0.0129 -0.008,0.0846 -0.0134,0.1701 -0.0134,0.25683 v 5.1e-4 21.1677 5.2e-4 c 8e-5,0.0911 0.005,0.18104 0.014,0.26975 1e-5,1.7e-4 -2e-5,3.5e-4 0,5.2e-4 0.009,0.0887 0.0227,0.17611 0.0403,0.262 4e-5,1.6e-4 -3e-5,3.5e-4 0,5.1e-4 0.0176,0.0859 0.0394,0.17059 0.0651,0.25322 0.0516,0.16557 0.11904,0.32403 0.2005,0.47387 0.0814,0.14972 0.17705,0.29068 0.28474,0.42117 9e-5,1e-4 -9e-5,4.1e-4 0,5.1e-4 0.0538,0.0651 0.11087,0.12741 0.17053,0.18707 0.002,0.002 0.004,0.004 0.006,0.006 l 1.40921,1.40869 c 0.478,0.479 1.13914,0.77463 1.86914,0.77463 h 21.1677 c 1.46,0 2.64431,-1.18376 2.64531,-2.64376 v -21.16822 c -10e-4,-0.73 -0.29714,-1.39062 -0.77514,-1.86862 l -1.41387,-1.41438 c -2.6e-4,-2.6e-4 -7.7e-4,-2.6e-4 -0.001,-5.2e-4 -0.11954,-0.11952 -0.25014,-0.22799 -0.39068,-0.32298 -1.2e-4,-8e-5 -3.9e-4,9e-5 -5.1e-4,0 -0.2812,-0.18999 -0.60113,-0.32732 -0.94516,-0.39791 -1.7e-4,-3e-5 -3.6e-4,4e-5 -5.2e-4,0 -0.17195,-0.0352 -0.34993,-0.0541 -0.53227,-0.0543 h -5.2e-4 z" />
    <path
       id="path119"
       style="fill:#88aa00;fill-opacity:1;stroke-linecap:round;stroke-linejoin:round;paint-order:stroke fill markers"
       d="m 487.94699,175.03469 c -0.0913,6e-5 -0.1814,0.005 -0.27027,0.0139 -0.26664,0.0272 -0.52137,0.0939 -0.75861,0.19431 -0.0791,0.0335 -0.15658,0.0709 -0.23151,0.11162 -0.14971,0.0814 -0.29068,0.17706 -0.42116,0.28474 -0.0652,0.0538 -0.12785,0.1108 -0.18759,0.17053 -0.0314,0.0314 -0.0601,0.0653 -0.0899,0.0982 -0.027,0.0298 -0.0555,0.0584 -0.0811,0.0894 -8e-5,1e-4 8e-5,4.2e-4 0,5.2e-4 -0.0538,0.0652 -0.10447,0.13288 -0.15193,0.20309 -1.3e-4,2e-4 -3.8e-4,3.1e-4 -5.1e-4,5.1e-4 -0.0949,0.14049 -0.17653,0.29063 -0.2434,0.44856 -0.0213,0.0502 -0.0386,0.10227 -0.0568,0.15399 -0.0105,0.0298 -0.0231,0.0586 -0.0326,0.0889 -5e-5,1.5e-4 5e-5,3.6e-4 0,5.1e-4 -0.0515,0.16542 -0.0873,0.33763 -0.10542,0.51522 -2e-5,1.7e-4 2e-5,3.4e-4 0,5.1e-4 -4.3e-4,0.004 -1e-4,0.009 -5.2e-4,0.0129 -0.008,0.0847 -0.0134,0.17046 -0.0134,0.25735 v 21.16822 c 10e-4,0.73 0.29715,1.39062 0.77515,1.86862 l 1.4149,1.41438 c 0.478,0.479 1.13913,0.77463 1.86913,0.77463 h 21.1677 c 1.46,0 2.64432,-1.18377 2.64532,-2.64377 v -21.16821 c -0.001,-0.73 -0.29715,-1.39062 -0.77515,-1.86862 l -1.41386,-1.41439 c -0.479,-0.479 -1.14017,-0.77466 -1.87017,-0.77566 z" />
    <path
       style="fill:#abc837;fill-opacity:1;stroke-linecap:round;stroke-linejoin:round;paint-order:stroke fill markers"
       d="m 487.94727,175.03499 c -1.46019,7.2e-4 -2.6438,1.1841 -2.6448,2.64429 v 21.16821 c 10e-4,1.46019 1.18461,2.64357 2.6448,2.64429 h 21.1677 c 1.46019,-7.2e-4 2.6438,-1.1841 2.6448,-2.64429 v -21.16821 c -10e-4,-1.46019 -1.18461,-2.64357 -2.6448,-2.64429 z"
       id="path120" />
    <path
       id="path121"
       style="fill:#f9f9f9;stroke:#4d4d4d;stroke-linecap:round;stroke-linejoin:round;paint-order:stroke fill markers"
       d="m 493.23983,180.32684 c -1.46579,0 -2.64584,1.18004 -2.64584,2.64583 v 2.64583 h 2.64584 10.58333 2.64583 v -2.64583 c 0,-1.46579 -1.18004,-2.64583 -2.64583,-2.64583 z m -2.64584,10.58333 v 2.64583 c 0,1.46579 1.18005,2.64584 2.64584,2.64584 h 10.58333 c 1.46579,0 2.64583,-1.18005 2.64583,-2.64584 v -2.64583 h -2.64583 -10.58333 z" />
    <path
       id="path122"
       style="fill:#cccccc;stroke-linecap:round;stroke-linejoin:round;paint-order:stroke fill markers"
       d="m 493.23969,180.32687 c -0.27484,0 -0.53973,0.0413 -0.78858,0.11834 -0.3318,0.10277 -0.63493,0.26887 -0.89607,0.48421 -0.13058,0.10767 -0.25045,0.22755 -0.35812,0.35812 -0.10766,0.1306 -0.20296,0.27167 -0.28422,0.42168 -1.1e-4,2.1e-4 -4e-4,3.1e-4 -5.2e-4,5.2e-4 -0.0811,0.14983 -0.14816,0.30868 -0.19947,0.47439 -0.0514,0.16592 -0.0869,0.33893 -0.1049,0.51728 -0.009,0.0892 -0.0134,0.17967 -0.0134,0.2713 v 2.64583 h 1.41387 v -1.23197 c 0,-1.466 1.17983,-2.64583 2.64583,-2.64583 h 10.58385 c 0.36364,0 0.71015,0.0728 1.02526,0.20464 -0.39952,-0.95267 -1.33908,-1.61851 -2.44016,-1.61851 z m -2.64532,10.58334 v 2.64531 c 0,0.0916 0.004,0.18215 0.0134,0.27131 2e-5,1.6e-4 -2e-5,3.4e-4 0,5.1e-4 0.018,0.17813 0.0536,0.35107 0.1049,0.51677 5e-5,1.5e-4 -5e-5,3.5e-4 0,5.1e-4 0.0513,0.16569 0.11835,0.32404 0.19947,0.47388 8e-5,1.3e-4 -7e-5,3.8e-4 0,5.1e-4 0.0405,0.0749 0.085,0.1473 0.13229,0.21756 0.0355,0.0526 0.0746,0.10263 0.11369,0.15245 0.0131,0.0168 0.0247,0.0347 0.0382,0.0512 1.6e-4,1.8e-4 3.7e-4,3.3e-4 5.2e-4,5.1e-4 0.0537,0.0651 0.11044,0.12789 0.17001,0.18759 l 5.2e-4,5.1e-4 c 0.24037,0.24037 0.52721,0.43381 0.84594,0.56741 -0.13225,-0.3155 -0.20515,-0.66229 -0.20515,-1.02681 v -2.64583 h 2.64583 10.58385 1.23094 v -1.41335 h -2.64584 -10.58333 z m 1.61902,5.08599 c 0.0791,0.0331 0.15958,0.0624 0.24237,0.0879 -0.0826,-0.0254 -0.16352,-0.0548 -0.24237,-0.0879 z m 0.24237,0.0879 c 0.24753,0.0762 0.51076,0.11782 0.78393,0.11782 h 10.58333 c 0.27484,0 0.53974,-0.0418 0.78858,-0.11885 -0.24889,0.0771 -0.5137,0.11834 -0.78858,0.11834 h -10.58281 c -0.2734,0 -0.53674,-0.041 -0.78445,-0.11731 z m 12.15584,-0.001 c 0.41488,-0.1285 0.78523,-0.35571 1.08418,-0.65474 -0.29896,0.29888 -0.66935,0.52629 -1.08418,0.65474 z"
       sodipodi:nodetypes="ssssscsssccssscsscsscscscssscsscsccccccccccccsscsscccc" />
    <path
       id="path127"
       style="fill:#000000;fill-opacity:1;stroke:#4d4d4d;stroke-width:2.37993144;stroke-linecap:round;stroke-linejoin:round;paint-order:stroke fill markers"
       d="m 487.94715,211.46651 c -0.0913,5e-5 -0.18138,0.005 -0.27026,0.014 -0.11828,0.0121 -0.23309,0.0349 -0.34624,0.062 -0.0293,0.007 -0.0584,0.0142 -0.0873,0.0222 -0.11112,0.0307 -0.2203,0.0657 -0.32504,0.11007 -0.0791,0.0335 -0.15659,0.0709 -0.23151,0.11162 -0.0749,0.0407 -0.14781,0.0847 -0.21808,0.13229 -0.14043,0.0949 -0.2712,0.20357 -0.39067,0.32298 -0.0247,0.0247 -0.0471,0.0514 -0.0708,0.077 -0.006,0.007 -0.0127,0.0141 -0.0191,0.0212 -0.027,0.0299 -0.0555,0.0583 -0.0811,0.0894 v 5.1e-4 c -0.0538,0.0652 -0.10499,0.13288 -0.15245,0.20309 v 5.2e-4 c -0.0474,0.0702 -0.0916,0.14277 -0.13229,0.21756 -0.0666,0.12242 -0.12112,0.25185 -0.16795,0.38499 -0.0105,0.0298 -0.0231,0.0586 -0.0325,0.0889 v 5.2e-4 c -0.0515,0.16542 -0.0873,0.33762 -0.10542,0.51521 v 5.2e-4 c -4.3e-4,0.004 -10e-5,0.009 -5.2e-4,0.0129 -0.008,0.0846 -0.0134,0.1701 -0.0134,0.25683 v 5.1e-4 21.1677 5.2e-4 c 8e-5,0.0911 0.005,0.18104 0.014,0.26975 10e-6,1.7e-4 -2e-5,3.5e-4 0,5.2e-4 0.009,0.0887 0.0227,0.17611 0.0403,0.262 4e-5,1.6e-4 -3e-5,3.5e-4 0,5.1e-4 0.0176,0.0859 0.0394,0.17059 0.0651,0.25322 0.0516,0.16557 0.11904,0.32403 0.2005,0.47387 0.0814,0.14972 0.17705,0.29068 0.28474,0.42117 9e-5,1e-4 -9e-5,4.1e-4 0,5.1e-4 0.0538,0.0651 0.11087,0.12741 0.17053,0.18707 0.002,0.002 0.004,0.004 0.006,0.006 l 1.40921,1.40869 c 0.478,0.479 1.13914,0.77463 1.86914,0.77463 h 21.1677 c 1.46,0 2.64431,-1.18376 2.64531,-2.64376 v -21.16822 c -0.001,-0.73 -0.29714,-1.39062 -0.77514,-1.86862 l -1.41387,-1.41438 c -2.6e-4,-2.6e-4 -7.7e-4,-2.6e-4 -10e-4,-5.2e-4 -0.11954,-0.11952 -0.25014,-0.22799 -0.39068,-0.32298 -1.2e-4,-8e-5 -3.9e-4,9e-5 -5.1e-4,0 -0.2812,-0.18999 -0.60113,-0.32732 -0.94516,-0.39791 -1.7e-4,-3e-5 -3.6e-4,4e-5 -5.2e-4,0 -0.17195,-0.0352 -0.34993,-0.0541 -0.53227,-0.0543 h -5.2e-4 z" />
    <path
       id="path128"
       style="fill:#88aa00;fill-opacity:1;stroke-linecap:round;stroke-linejoin:round;paint-order:stroke fill markers"
       d="m 487.94699,211.46641 c -0.0913,6e-5 -0.1814,0.005 -0.27027,0.0139 -0.26664,0.0272 -0.52137,0.0939 -0.75861,0.19431 -0.0791,0.0335 -0.15658,0.0709 -0.23151,0.11162 -0.14971,0.0814 -0.29068,0.17706 -0.42116,0.28474 -0.0652,0.0538 -0.12785,0.1108 -0.18759,0.17053 -0.0314,0.0314 -0.0601,0.0653 -0.0899,0.0982 -0.027,0.0298 -0.0555,0.0584 -0.0811,0.0894 -8e-5,1e-4 8e-5,4.2e-4 0,5.2e-4 -0.0538,0.0652 -0.10447,0.13288 -0.15193,0.20309 -1.3e-4,2e-4 -3.8e-4,3.1e-4 -5.1e-4,5.1e-4 -0.0949,0.14049 -0.17653,0.29063 -0.2434,0.44856 -0.0213,0.0502 -0.0386,0.10227 -0.0568,0.15399 -0.0105,0.0298 -0.0231,0.0586 -0.0326,0.0889 -5e-5,1.5e-4 5e-5,3.6e-4 0,5.1e-4 -0.0515,0.16542 -0.0873,0.33763 -0.10542,0.51522 -2e-5,1.7e-4 2e-5,3.4e-4 0,5.1e-4 -4.3e-4,0.004 -1e-4,0.009 -5.2e-4,0.0129 -0.008,0.0847 -0.0134,0.17046 -0.0134,0.25735 v 21.16822 c 10e-4,0.73 0.29715,1.39062 0.77515,1.86862 l 1.4149,1.41438 c 0.478,0.479 1.13913,0.77463 1.86913,0.77463 h 21.1677 c 1.46,0 2.64432,-1.18377 2.64532,-2.64377 v -21.16821 c -0.001,-0.73 -0.29715,-1.39062 -0.77515,-1.86862 l -1.41386,-1.41439 c -0.479,-0.479 -1.14017,-0.77466 -1.87017,-0.77566 z" />
    <path
       style="fill:#abc837;fill-opacity:1;stroke-linecap:round;stroke-linejoin:round;paint-order:stroke fill markers"
       d="m 487.94727,211.46671 c -1.46019,7.2e-4 -2.6438,1.1841 -2.6448,2.64429 v 21.16821 c 10e-4,1.46019 1.18461,2.64357 2.6448,2.64429 h 21.1677 c 1.46019,-7.2e-4 2.6438,-1.1841 2.6448,-2.64429 V 214.111 c -10e-4,-1.46019 -1.18461,-2.64357 -2.6448,-2.64429 z"
       id="path129" />
    <path
       id="path130"
       style="fill:#f9f9f9;stroke:#4d4d4d;stroke-linecap:round;stroke-linejoin:round;paint-order:stroke fill markers;stroke-width:2.37993144"
       d="m 493.23983,216.75856 c -1.46579,0 -2.64584,1.18004 -2.64584,2.64583 v 2.64583 h 2.64584 10.58333 2.64583 v -2.64583 c 0,-1.46579 -1.18004,-2.64583 -2.64583,-2.64583 z m -2.64584,10.58333 v 2.64583 c 0,1.46579 1.18005,2.64584 2.64584,2.64584 h 10.58333 c 1.46579,0 2.64583,-1.18005 2.64583,-2.64584 v -2.64583 h -2.64583 -10.58333 z" />
    <path
       id="path131"
       style="fill:#cccccc;stroke-linecap:round;stroke-linejoin:round;paint-order:stroke fill markers"
       d="m 493.23969,216.75859 c -0.27484,0 -0.53973,0.0413 -0.78858,0.11834 -0.3318,0.10277 -0.63493,0.26887 -0.89607,0.48421 -0.13058,0.10767 -0.25045,0.22755 -0.35812,0.35812 -0.10766,0.1306 -0.20296,0.27167 -0.28422,0.42168 -1.1e-4,2.1e-4 -4e-4,3.1e-4 -5.2e-4,5.2e-4 -0.0811,0.14983 -0.14816,0.30868 -0.19947,0.47439 -0.0514,0.16592 -0.0869,0.33893 -0.1049,0.51728 -0.009,0.0892 -0.0134,0.17967 -0.0134,0.2713 v 2.64583 h 1.41387 v -1.23197 c 0,-1.466 1.17983,-2.64583 2.64583,-2.64583 h 10.58385 c 0.36364,0 0.71015,0.0728 1.02526,0.20464 -0.39952,-0.95267 -1.33908,-1.61851 -2.44016,-1.61851 z m -2.64532,10.58334 v 2.64531 c 0,0.0916 0.004,0.18215 0.0134,0.27131 2e-5,1.6e-4 -2e-5,3.4e-4 0,5.1e-4 0.018,0.17813 0.0536,0.35107 0.1049,0.51677 5e-5,1.5e-4 -5e-5,3.5e-4 0,5.1e-4 0.0513,0.16569 0.11835,0.32404 0.19947,0.47388 8e-5,1.3e-4 -7e-5,3.8e-4 0,5.1e-4 0.0405,0.0749 0.085,0.1473 0.13229,0.21756 0.0355,0.0526 0.0746,0.10263 0.11369,0.15245 0.0131,0.0168 0.0247,0.0347 0.0382,0.0512 1.6e-4,1.8e-4 3.7e-4,3.3e-4 5.2e-4,5.1e-4 0.0537,0.0651 0.11044,0.12789 0.17001,0.18759 l 5.2e-4,5.1e-4 c 0.24037,0.24037 0.52721,0.43381 0.84594,0.56741 -0.13225,-0.3155 -0.20515,-0.66229 -0.20515,-1.02681 v -2.64583 h 2.64583 10.58385 1.23094 v -1.41335 h -2.64584 -10.58333 z m 1.61902,5.08599 c 0.0791,0.0331 0.15958,0.0624 0.24237,0.0879 -0.0826,-0.0254 -0.16352,-0.0548 -0.24237,-0.0879 z m 0.24237,0.0879 c 0.24753,0.0762 0.51076,0.11782 0.78393,0.11782 h 10.58333 c 0.27484,0 0.53974,-0.0418 0.78858,-0.11885 -0.24889,0.0771 -0.5137,0.11834 -0.78858,0.11834 h -10.58281 c -0.2734,0 -0.53674,-0.041 -0.78445,-0.11731 z m 12.15584,-0.001 c 0.41488,-0.1285 0.78523,-0.35571 1.08418,-0.65474 -0.29896,0.29888 -0.66935,0.52629 -1.08418,0.65474 z"
       sodipodi:nodetypes="ssssscsssccssscsscsscscscssscsscsccccccccccccsscsscccc" />
  </g>
</svg>
