<?xml version="1.0" encoding="UTF-8" standalone="no"?>
<!-- Created with Inkscape (http://www.inkscape.org/) -->

<svg
   width="12.7mm"
   height="12.7mm"
   viewBox="0 0 12.7 12.7"
   version="1.1"
   id="svg5"
   inkscape:version="1.3.2 (091e20e, 2023-11-25, custom)"
   sodipodi:docname="logo_inkscape.svg"
   xml:space="preserve"
   xmlns:inkscape="http://www.inkscape.org/namespaces/inkscape"
   xmlns:sodipodi="http://sodipodi.sourceforge.net/DTD/sodipodi-0.dtd"
   xmlns:xlink="http://www.w3.org/1999/xlink"
   xmlns="http://www.w3.org/2000/svg"
   xmlns:svg="http://www.w3.org/2000/svg"><sodipodi:namedview
     id="namedview7"
     pagecolor="#ffffff"
     bordercolor="#666666"
     borderopacity="1.0"
     inkscape:pageshadow="2"
     inkscape:pageopacity="0.0"
     inkscape:pagecheckerboard="0"
     inkscape:document-units="px"
     showgrid="false"
     showborder="true"
     inkscape:zoom="2.8284271"
     inkscape:cx="50.558135"
     inkscape:cy="30.935922"
     inkscape:window-width="1920"
     inkscape:window-height="1009"
     inkscape:window-x="1072"
     inkscape:window-y="-8"
     inkscape:window-maximized="1"
     inkscape:current-layer="layer1"
     inkscape:showpageshadow="2"
     inkscape:deskcolor="#d1d1d1" /><defs
     id="defs2"><inkscape:path-effect
       effect="skeletal"
       id="path-effect6"
       is_visible="true"
       lpeversion="1"
       pattern="M 0,4.9921383 C 0,2.2364779 2.2364779,0 4.9921383,0 c 2.7556603,0 4.9921382,2.2364779 4.9921382,4.9921383 0,2.7556603 -2.2364779,4.9921382 -4.9921382,4.9921382 C 2.2364779,9.9842765 0,7.7477986 0,4.9921383 Z"
       copytype="single_stretched"
       prop_scale="1"
       scale_y_rel="false"
       spacing="0"
       normal_offset="0"
       tang_offset="0"
       prop_units="false"
       vertical_pattern="false"
       hide_knot="false"
       fuse_tolerance="0" /><inkscape:path-effect
       effect="powerstroke"
       id="path-effect4"
       is_visible="true"
       lpeversion="1.3"
       scale_width="1"
       interpolator_type="CubicBezierJohan"
       interpolator_beta="0.2"
       start_linecap_type="zerowidth"
       end_linecap_type="zerowidth"
       offset_points="0,1.49"
       linejoin_type="extrp_arc"
       miter_limit="4"
       not_jump="false"
       sort_points="true"
       message="&lt;b&gt;Ctrl + click&lt;/b&gt; on existing node and move it" /><linearGradient
       inkscape:collect="always"
       id="linearGradient1179"><stop
         style="stop-color:#c8c4b7;stop-opacity:1"
         offset="0"
         id="stop1175" /><stop
         style="stop-color:#e3e2db;stop-opacity:1"
         offset="1"
         id="stop1177" /></linearGradient><clipPath
       clipPathUnits="userSpaceOnUse"
       id="clipPath70034"><path
         id="path70036"
         style="fill:#79859b;fill-opacity:1;stroke:#000000;stroke-width:0.529166;stroke-linecap:butt;stroke-linejoin:miter;stroke-miterlimit:4;stroke-dasharray:none;stroke-opacity:1;paint-order:stroke fill markers"
         d="m 548.06012,-228.10683 c -0.54933,0.003 -1.1882,0.1067 -1.69244,0.3084 -0.26465,0.10586 -0.4501,0.51951 -0.57965,1.02723 -0.0947,-0.0219 -0.23207,-0.038 -0.43842,-0.038 -0.30776,0 -0.57267,0.0326 -0.79688,0.1406 -0.16169,0.0792 -0.28449,0.0998 -0.27791,0.30839 0.029,0.0289 0.4997,0.053 0.78326,0.0822 0.22503,0.0233 0.46138,0.12455 0.59383,0.18481 -0.0582,0.36905 -0.0957,0.7397 -0.11967,1.04821 -0.008,0.1006 -0.014,0.19213 -0.0193,0.27721 -0.002,0.0313 -0.003,0.0569 -0.005,0.0856 -0.003,0.0519 -0.006,0.0995 -0.008,0.14229 -0.001,0.0338 -0.002,0.0593 -0.003,0.0867 -10e-4,0.0349 -6.1e-4,0.0402 -0.002,0.0641 -0.002,0.0558 -0.003,0.0952 -0.003,0.0952 0,0 -0.004,0.006 -0.0147,0.0351 -0.005,0.015 -0.0126,0.0359 -0.0221,0.0663 0,0 0,5.8e-4 0,5.8e-4 -0.002,0.007 -0.007,0.0194 -0.009,0.0272 -0.0189,0.0612 -0.0435,0.14677 -0.08,0.28232 -0.0411,0.15289 -0.0951,0.36254 -0.16561,0.64911 -0.0352,0.14329 -0.0745,0.3059 -0.11854,0.49037 -0.011,0.0461 -0.02,0.0938 -0.0272,0.14286 -0.008,0.049 -0.0123,0.0996 -0.0159,0.15136 -0.003,0.0518 -0.005,0.10499 -0.005,0.1593 -8e-5,0.0452 0.002,0.0909 0.004,0.13776 0.001,0.0241 0.003,0.0486 0.005,0.0731 0.002,0.0275 0.005,0.0554 0.007,0.0833 0.002,0.0274 0.005,0.0549 0.009,0.0828 0.005,0.0466 0.0117,0.0939 0.0193,0.14173 0,0 0,5.8e-4 0,5.8e-4 0.01,0.0608 0.0204,0.1223 0.0329,0.18481 0.0125,0.0625 0.0267,0.12586 0.042,0.18991 0.0153,0.0641 0.032,0.12848 0.0499,0.19388 0.0179,0.0654 0.0369,0.13186 0.0573,0.19842 0.0205,0.0668 0.0424,0.13351 0.0652,0.20125 0.0684,0.20255 0.1466,0.40866 0.23367,0.61622 0.0291,0.0692 0.0593,0.13815 0.0902,0.20749 0,0 0,5.8e-4 0,5.8e-4 0.0307,0.0692 0.0623,0.13834 0.0947,0.20749 0.19494,0.41604 0.41831,0.82966 0.65508,1.21941 0.0747,0.12306 0.15107,0.2435 0.22801,0.36111 h 9.08665 c -0.17402,-2.86414 -1.2584,-5.97176 -1.63459,-6.04829 -0.481,-0.0978 -1.85359,-0.70172 -2.13029,-1.25512 -0.27672,-0.55343 -2.46698,-2.3286 -3.04345,-2.51309 -0.21605,-0.0692 -0.51336,-0.10306 -0.84281,-0.10091 z" /></clipPath><clipPath
       clipPathUnits="userSpaceOnUse"
       id="clipPath70034-5"><path
         id="path70036-8"
         style="fill:#79859b;fill-opacity:1;stroke:#000000;stroke-width:0.529166;stroke-linecap:butt;stroke-linejoin:miter;stroke-miterlimit:4;stroke-dasharray:none;stroke-opacity:1;paint-order:stroke fill markers"
         d="m 548.06012,-228.10683 c -0.54933,0.003 -1.1882,0.1067 -1.69244,0.3084 -0.26465,0.10586 -0.4501,0.51951 -0.57965,1.02723 -0.0947,-0.0219 -0.23207,-0.038 -0.43842,-0.038 -0.30776,0 -0.57267,0.0326 -0.79688,0.1406 -0.16169,0.0792 -0.28449,0.0998 -0.27791,0.30839 0.029,0.0289 0.4997,0.053 0.78326,0.0822 0.22503,0.0233 0.46138,0.12455 0.59383,0.18481 -0.0582,0.36905 -0.0957,0.7397 -0.11967,1.04821 -0.008,0.1006 -0.014,0.19213 -0.0193,0.27721 -0.002,0.0313 -0.003,0.0569 -0.005,0.0856 -0.003,0.0519 -0.006,0.0995 -0.008,0.14229 -0.001,0.0338 -0.002,0.0593 -0.003,0.0867 -10e-4,0.0349 -6.1e-4,0.0402 -0.002,0.0641 -0.002,0.0558 -0.003,0.0952 -0.003,0.0952 0,0 -0.004,0.006 -0.0147,0.0351 -0.005,0.015 -0.0126,0.0359 -0.0221,0.0663 0,0 0,5.8e-4 0,5.8e-4 -0.002,0.007 -0.007,0.0194 -0.009,0.0272 -0.0189,0.0612 -0.0435,0.14677 -0.08,0.28232 -0.0411,0.15289 -0.0951,0.36254 -0.16561,0.64911 -0.0352,0.14329 -0.0745,0.3059 -0.11854,0.49037 -0.011,0.0461 -0.02,0.0938 -0.0272,0.14286 -0.008,0.049 -0.0123,0.0996 -0.0159,0.15136 -0.003,0.0518 -0.005,0.10499 -0.005,0.1593 -8e-5,0.0452 0.002,0.0909 0.004,0.13776 0.001,0.0241 0.003,0.0486 0.005,0.0731 0.002,0.0275 0.005,0.0554 0.007,0.0833 0.002,0.0274 0.005,0.0549 0.009,0.0828 0.005,0.0466 0.0117,0.0939 0.0193,0.14173 0,0 0,5.8e-4 0,5.8e-4 0.01,0.0608 0.0204,0.1223 0.0329,0.18481 0.0125,0.0625 0.0267,0.12586 0.042,0.18991 0.0153,0.0641 0.032,0.12848 0.0499,0.19388 0.0179,0.0654 0.0369,0.13186 0.0573,0.19842 0.0205,0.0668 0.0424,0.13351 0.0652,0.20125 0.0684,0.20255 0.1466,0.40866 0.23367,0.61622 0.0291,0.0692 0.0593,0.13815 0.0902,0.20749 0,0 0,5.8e-4 0,5.8e-4 0.0307,0.0692 0.0623,0.13834 0.0947,0.20749 0.19494,0.41604 0.41831,0.82966 0.65508,1.21941 0.0747,0.12306 0.15107,0.2435 0.22801,0.36111 h 9.08665 c -0.17402,-2.86414 -1.2584,-5.97176 -1.63459,-6.04829 -0.481,-0.0978 -1.85359,-0.70172 -2.13029,-1.25512 -0.27672,-0.55343 -2.46698,-2.3286 -3.04345,-2.51309 -0.21605,-0.0692 -0.51336,-0.10306 -0.84281,-0.10091 z" /></clipPath><clipPath
       clipPathUnits="userSpaceOnUse"
       id="clipPath46021"><rect
         style="fill:#e6e6e6;fill-opacity:1;stroke:none;stroke-width:0.529164;stroke-linecap:square;stroke-linejoin:round;paint-order:stroke fill markers;stop-color:#000000"
         id="rect46023"
         width="95.77916"
         height="59.861977"
         x="1474.7316"
         y="-289.7153" /></clipPath><clipPath
       clipPathUnits="userSpaceOnUse"
       id="clipPath1582"><rect
         style="fill:url(#linearGradient1586);fill-opacity:1;stroke-width:0.407607"
         id="rect1584"
         width="338.66666"
         height="211.66667"
         x="1148.515"
         y="46.946522" /></clipPath><linearGradient
       inkscape:collect="always"
       xlink:href="#linearGradient1179"
       id="linearGradient1586"
       gradientUnits="userSpaceOnUse"
       x1="1154.1417"
       y1="137.87424"
       x2="1474.7041"
       y2="169.00879"
       gradientTransform="translate(8.5416667e-6)" /><clipPath
       clipPathUnits="userSpaceOnUse"
       id="clipPath6070"><rect
         style="opacity:0.470194;fill:#000000;stroke:none;stroke-width:3.45591;stroke-linecap:square;stroke-linejoin:round;stroke-dasharray:none;stroke-opacity:1;paint-order:stroke fill markers"
         id="rect6072"
         width="185.63359"
         height="57.397923"
         x="3061.4553"
         y="48.925018" /></clipPath><clipPath
       clipPathUnits="userSpaceOnUse"
       id="clipPath6080"><rect
         style="opacity:0.470194;fill:#000000;stroke:none;stroke-width:3.45591;stroke-linecap:square;stroke-linejoin:round;stroke-dasharray:none;stroke-opacity:1;paint-order:stroke fill markers"
         id="rect6082"
         width="185.63359"
         height="57.397923"
         x="2865.6606"
         y="48.925018" /></clipPath><clipPath
       clipPathUnits="userSpaceOnUse"
       id="clipPath6101"><rect
         style="opacity:0.470194;fill:#000000;stroke:none;stroke-width:3.43892;stroke-linecap:square;stroke-linejoin:round;stroke-dasharray:none;stroke-opacity:1;paint-order:stroke fill markers"
         id="rect6103"
         width="185.63359"
         height="56.835197"
         x="2770.4092"
         y="49.487728" /></clipPath><clipPath
       clipPathUnits="userSpaceOnUse"
       id="clipPath6260"><rect
         style="opacity:0.470194;fill:#000000;stroke:none;stroke-width:3.59198;stroke-linecap:square;stroke-linejoin:round;stroke-dasharray:none;stroke-opacity:1;paint-order:stroke fill markers"
         id="rect6262"
         width="176.9025"
         height="48.301678"
         x="2719.916"
         y="129.618" /></clipPath><clipPath
       clipPathUnits="userSpaceOnUse"
       id="clipPath6264"><rect
         style="opacity:0.470194;fill:#000000;stroke:none;stroke-width:3.59198;stroke-linecap:square;stroke-linejoin:round;stroke-dasharray:none;stroke-opacity:1;paint-order:stroke fill markers"
         id="rect6266"
         width="176.9025"
         height="48.301678"
         x="2719.916"
         y="129.618" /></clipPath><clipPath
       clipPathUnits="userSpaceOnUse"
       id="clipPath6276"><rect
         style="opacity:0.470194;fill:#000000;stroke:none;stroke-width:3.59198;stroke-linecap:square;stroke-linejoin:round;stroke-dasharray:none;stroke-opacity:1;paint-order:stroke fill markers"
         id="rect6278"
         width="176.9025"
         height="48.301678"
         x="2719.916"
         y="129.618" /></clipPath><clipPath
       clipPathUnits="userSpaceOnUse"
       id="clipPath6330"><path
         id="path6332"
         style="opacity:0.470194;fill:#000000;stroke:none;stroke-width:3.59198;stroke-linecap:square;stroke-linejoin:round;stroke-dasharray:none;stroke-opacity:1;paint-order:stroke fill markers"
         d="m 2791.4035,129.61817 11.6474,48.30144 h 93.7679 v -48.30144 z" /></clipPath><clipPath
       clipPathUnits="userSpaceOnUse"
       id="clipPath6342"><path
         id="path6344"
         style="opacity:0.470194;fill:#000000;stroke:none;stroke-width:3.59198;stroke-linecap:square;stroke-linejoin:round;stroke-dasharray:none;stroke-opacity:1;paint-order:stroke fill markers"
         d="m 2803.0509,129.61793 11.6478,48.30196 h 82.1201 v -48.30196 z" /></clipPath><clipPath
       clipPathUnits="userSpaceOnUse"
       id="clipPath6354"><path
         id="path6356"
         style="opacity:0.470194;fill:#000000;stroke:none;stroke-width:3.59198;stroke-linecap:square;stroke-linejoin:round;stroke-dasharray:none;stroke-opacity:1;paint-order:stroke fill markers"
         d="m 2814.6987,129.61822 11.6479,48.30143 h 70.4722 v -48.30143 z" /></clipPath><clipPath
       clipPathUnits="userSpaceOnUse"
       id="clipPath70034-6"><path
         id="path70036-7"
         style="fill:#79859b;fill-opacity:1;stroke:#000000;stroke-width:0.529166;stroke-linecap:butt;stroke-linejoin:miter;stroke-miterlimit:4;stroke-dasharray:none;stroke-opacity:1;paint-order:stroke fill markers"
         d="m 548.06012,-228.10683 c -0.54933,0.003 -1.1882,0.1067 -1.69244,0.3084 -0.26465,0.10586 -0.4501,0.51951 -0.57965,1.02723 -0.0947,-0.0219 -0.23207,-0.038 -0.43842,-0.038 -0.30776,0 -0.57267,0.0326 -0.79688,0.1406 -0.16169,0.0792 -0.28449,0.0998 -0.27791,0.30839 0.029,0.0289 0.4997,0.053 0.78326,0.0822 0.22503,0.0233 0.46138,0.12455 0.59383,0.18481 -0.0582,0.36905 -0.0957,0.7397 -0.11967,1.04821 -0.008,0.1006 -0.014,0.19213 -0.0193,0.27721 -0.002,0.0313 -0.003,0.0569 -0.005,0.0856 -0.003,0.0519 -0.006,0.0995 -0.008,0.14229 -0.001,0.0338 -0.002,0.0593 -0.003,0.0867 -10e-4,0.0349 -6.1e-4,0.0402 -0.002,0.0641 -0.002,0.0558 -0.003,0.0952 -0.003,0.0952 0,0 -0.004,0.006 -0.0147,0.0351 -0.005,0.015 -0.0126,0.0359 -0.0221,0.0663 0,0 0,5.8e-4 0,5.8e-4 -0.002,0.007 -0.007,0.0194 -0.009,0.0272 -0.0189,0.0612 -0.0435,0.14677 -0.08,0.28232 -0.0411,0.15289 -0.0951,0.36254 -0.16561,0.64911 -0.0352,0.14329 -0.0745,0.3059 -0.11854,0.49037 -0.011,0.0461 -0.02,0.0938 -0.0272,0.14286 -0.008,0.049 -0.0123,0.0996 -0.0159,0.15136 -0.003,0.0518 -0.005,0.10499 -0.005,0.1593 -8e-5,0.0452 0.002,0.0909 0.004,0.13776 0.001,0.0241 0.003,0.0486 0.005,0.0731 0.002,0.0275 0.005,0.0554 0.007,0.0833 0.002,0.0274 0.005,0.0549 0.009,0.0828 0.005,0.0466 0.0117,0.0939 0.0193,0.14173 0,0 0,5.8e-4 0,5.8e-4 0.01,0.0608 0.0204,0.1223 0.0329,0.18481 0.0125,0.0625 0.0267,0.12586 0.042,0.18991 0.0153,0.0641 0.032,0.12848 0.0499,0.19388 0.0179,0.0654 0.0369,0.13186 0.0573,0.19842 0.0205,0.0668 0.0424,0.13351 0.0652,0.20125 0.0684,0.20255 0.1466,0.40866 0.23367,0.61622 0.0291,0.0692 0.0593,0.13815 0.0902,0.20749 0,0 0,5.8e-4 0,5.8e-4 0.0307,0.0692 0.0623,0.13834 0.0947,0.20749 0.19494,0.41604 0.41831,0.82966 0.65508,1.21941 0.0747,0.12306 0.15107,0.2435 0.22801,0.36111 h 9.08665 c -0.17402,-2.86414 -1.2584,-5.97176 -1.63459,-6.04829 -0.481,-0.0978 -1.85359,-0.70172 -2.13029,-1.25512 -0.27672,-0.55343 -2.46698,-2.3286 -3.04345,-2.51309 -0.21605,-0.0692 -0.51336,-0.10306 -0.84281,-0.10091 z" /></clipPath><inkscape:path-effect
       effect="fill_between_many"
       method="bsplinespiro"
       autoreverse="false"
       close="false"
       join="false"
       linkedpaths="#path4,0,1"
       id="path-effect5"
       is_visible="true"
       lpeversion="0" /></defs><g
     inkscape:label="圖層 1"
     inkscape:groupmode="layer"
     id="layer1"
     transform="translate(-757.00775,-18.526815)"><path
       style="fill:#ffffff;fill-opacity:0.870588;stroke:#ced4da;stroke-width:0.376543;stroke-linecap:round;stroke-linejoin:round;stroke-dasharray:none;stroke-opacity:1;paint-order:stroke fill markers"
       d="m 57.967285,-102.24902 c -1.655866,0.006 -2.685,1.52765 -3.915301,2.405231 -4.474318,3.839114 -8.986469,7.641396 -13.326154,11.632119 -0.665829,1.001736 -0.334162,2.312178 -0.453241,3.448235 -0.004,5.84151 -0.09977,11.686798 0.06555,17.52613 0.002,1.685412 1.768228,2.877431 3.357396,2.657317 9.794086,0.09889 19.591175,0.12183 29.384547,-0.0372 1.61645,-0.07821 2.898166,-1.720377 2.714655,-3.310137 0.111884,-6.366693 0.155675,-12.73991 -0.04009,-19.104902 -0.214699,-1.671037 -1.936171,-2.457459 -2.99729,-3.556187 -4.419989,-3.792387 -8.805164,-7.631134 -13.323266,-11.305386 -0.440392,-0.25741 -0.960112,-0.36342 -1.466798,-0.35522 z m 6.772218,18.870357 c 1.648428,-0.145504 2.433131,2.242784 1.184081,3.200196 -1.030823,1.126523 -3.078548,0.277592 -3.121094,-1.215576 -0.11501,-1.091132 0.832701,-2.087859 1.937013,-1.98462 z m -13.303224,0.0049 c 1.403658,-0.06031 2.310064,1.675011 1.520264,2.816161 -0.70434,1.338074 -2.842922,1.114035 -3.332764,-0.269531 -0.424552,-1.07409 0.239601,-2.535594 1.499512,-2.537109 0.104038,-0.009 0.20859,-0.01244 0.312988,-0.0095 z m 7.18628,7.126952 c 1.103994,-0.09152 2.303611,1.053647 1.7146,2.160157 -0.393594,0.629377 -0.502985,1.494581 0.09863,2.024413 0.297349,0.825347 0.356789,1.997191 -0.619385,2.403322 -0.92521,0.474127 -2.059477,0.273016 -3.029541,0.03491 0.176769,-0.109446 0.706171,0.214028 1.056396,0.194093 1.113403,0.212001 2.603027,-0.286244 2.641114,-1.613282 0.183941,-1.066914 -0.756709,-1.902082 -1.767334,-1.913086 -0.858567,-0.07408 -0.03319,-0.06037 0.373535,-0.200928 1.169708,-0.213082 1.770004,-1.932895 0.677247,-2.633788 -0.706069,-0.630214 -1.713897,-0.427712 -2.549562,-0.243165 0.458608,-0.11745 0.929204,-0.213277 1.404298,-0.212647 z m 1.833251,4.145997 c -0.02244,-0.01455 -0.08167,-0.07167 0,0 z"
       id="path6"
       transform="matrix(0.26458333,0,0,0.26458333,748.00726,46.946522)" /><g
       style="fill:none;stroke:currentColor;stroke-width:2.00017;stroke-linecap:round;stroke-linejoin:round;stroke-dasharray:none"
       id="g1"
       transform="matrix(0.55809036,0,0,0.55809036,756.66065,18.457699)"><path
         d="M 3,10 A 2,2 0 0 1 3.709,8.472 l 7,-5.999 a 2,2 0 0 1 2.582,0 l 7,5.999 A 2,2 0 0 1 21,10 v 9 a 2,2 0 0 1 -2,2 H 5 A 2,2 0 0 1 3,19 Z"
         id="path2"
         style="stroke-width:2.00017;stroke-dasharray:none" /></g><circle
       style="fill:#000000;fill-opacity:0.870588;stroke-width:1.0987;stroke-linecap:round;stroke-linejoin:round;-inkscape-stroke:none;paint-order:stroke fill markers"
       id="path3"
       cx="761.59601"
       cy="25.371811"
       r="0.75042111" /><circle
       style="fill:#000000;fill-opacity:0.870588;stroke-width:1.0987;stroke-linecap:round;stroke-linejoin:round;-inkscape-stroke:none;paint-order:stroke fill markers"
       id="circle3"
       cx="765.11945"
       cy="25.371811"
       r="0.75042111" /><text
       xml:space="preserve"
       style="font-style:normal;font-variant:normal;font-weight:normal;font-stretch:normal;font-size:2.70226px;line-height:1.1;font-family:Monospace;-inkscape-font-specification:Monospace;letter-spacing:-0.184246px;word-spacing:0px;text-orientation:upright;fill:none;fill-opacity:0.870588;stroke:#000000;stroke-width:0.277506;stroke-linecap:round;stroke-linejoin:round;stroke-dasharray:none;stroke-opacity:1;paint-order:stroke fill markers"
       x="762.74811"
       y="28.669235"
       id="text6"><tspan
         sodipodi:role="line"
         id="tspan6"
         style="font-style:normal;font-variant:normal;font-weight:normal;font-stretch:normal;font-family:Monospace;-inkscape-font-specification:Monospace;stroke-width:0.277506"
         x="762.74811"
         y="28.669235">3</tspan></text></g></svg>
